<?xml version="1.0" encoding="UTF-8" standalone="no"?>
<svg width="1615px" height="1053px" viewBox="0 0 1615 1053" version="1.1" xmlns="http://www.w3.org/2000/svg" xmlns:xlink="http://www.w3.org/1999/xlink" xmlns:sketch="http://www.bohemiancoding.com/sketch/ns">
    <!-- Generator: Sketch 3.3.2 (12043) - http://www.bohemiancoding.com/sketch -->
    <title>Artboard 7</title>
    <desc>Created with Sketch.</desc>
    <defs></defs>
    <g id="Page-1" stroke="none" stroke-width="1" fill="none" fill-rule="evenodd" sketch:type="MSPage">
        <g id="Artboard-7" sketch:type="MSArtboardGroup">
            <g id="Imported-Layers" sketch:type="MSLayerGroup" transform="translate(260.000000, 204.000000)">
                <path d="M1068.1958,387.285061 C1063.74361,382.443156 1060.85437,376.454367 1055.2054,372.687946 C1049.82437,369.10449 1046.29656,363.428082 1039.9063,360.848707 C1040.4913,357.399129 1036.70001,355.578395 1036.71341,351.936925 C1036.71341,351.557605 1039.47314,352.481361 1039.46421,352.102041 C1045.76069,350.196517 1051.624,346.693388 1056.82641,342.967129 C1062.08241,339.200707 1065.49858,333.390422 1069.28987,328.115646 C1073.00523,322.939048 1074.79594,317.043973 1076.76526,310.751728 C1078.64081,304.767401 1077.68964,298.921415 1077.68964,292.218612 C1077.68964,284.650068 1081.02989,277.16185 1078.49344,270.717878 C1075.79623,263.86781 1069.53994,259.472163 1064.50276,254.420517 C1059.46111,249.364408 1053.76302,246.43249 1046.92174,243.723701 C1040.4779,241.171102 1034.30646,234.213932 1026.73282,234.213932 C1016.73884,234.213932 1016.73884,234.450449 1006.74485,234.450449 C996.741939,234.450449 996.741939,241.260354 986.739024,241.260354 C976.727178,241.260354 976.727178,234.512925 966.719798,234.512925 C956.707951,234.512925 956.707951,237.587646 946.696105,237.587646 C939.993259,237.587646 934.447,241.175565 928.391664,243.214966 C922.171101,245.312381 917.562615,248.404952 912.404862,252.394503 C907.314093,256.334966 899.329623,254.188463 895.64998,259.717605 C890.358259,257.169469 885.789964,260.088 879.542607,258.463619 C873.884709,256.995429 867.860632,256.808 861.430186,256.107374 C855.602595,255.469224 849.645502,250.096272 843.188263,250.096272 C836.284466,250.096272 829.085939,250.015946 822.517061,250.591619 C815.318534,251.220844 809.057781,257.530939 802.904202,258.490395 C794.7813,259.762231 787.542583,259.253497 782.599178,260.351293 C774.860316,262.064925 770.091069,268.73649 763.919628,272.886694 C757.51151,277.188626 752.581502,281.138014 748.388316,287.528435 C744.284441,293.78498 740.220757,299.421224 738.747113,307.168272 C738.349676,309.234449 736.460733,310.832054 736.282109,312.889306 C726.73915,313.527456 717.888356,317.566095 710.064648,321.979592 C710.989024,317.624109 707.769336,311.978939 707.760405,307.30215 C707.742543,299.760381 711.37753,292.156136 708.836611,285.734476 C706.134931,278.920109 699.056976,275.171537 694.03319,270.142204 C689.004939,265.108408 683.146089,263.372463 676.331603,260.677061 C669.910089,258.133388 664.421883,252.403429 656.87504,252.403429 C656.825919,252.403429 656.825919,251.921469 656.772332,251.921469 C656.660692,251.921469 656.64283,248.69502 656.53119,248.69502 C649.024538,248.730721 641.567008,255.687891 634.002304,255.861932 C626.482255,256.040435 618.913085,254.469605 611.366243,254.777524 C603.828332,255.08098 598.282073,251.649252 590.76649,252.086585 C592.039182,247.043864 588.346142,244.058395 589.346433,238.631891 C590.288672,233.517769 590.212757,228.296544 590.87813,222.812027 C591.704263,216.051211 593.258287,209.803592 593.459239,203.350694 C593.673587,196.540789 598.33566,189.833524 597.862308,183.389551 C597.366628,176.606422 597.786393,169.515374 596.536028,163.160653 C595.232077,156.511401 592.307117,150.013878 590.185964,143.864435 C587.99336,137.496327 580.750178,133.435374 577.691251,127.638476 C574.583202,121.734476 573.073834,115.143238 569.077134,109.864 C565.09383,104.602612 558.190032,102.37132 553.340405,97.7614694 C546.566109,91.3174966 542.828413,80.0583946 534.035672,77.6262857 C529.2307,74.3775238 523.126243,72.9896599 517.477275,71.289415 C511.95781,69.6248707 505.353206,69.3526531 499.413976,69.3526531 C491.960911,69.3526531 486.070802,75.9751293 479.461733,78.4563265 C472.67404,81.0089252 465.21651,81.1963537 459.804219,86.0248707 C454.775968,80.2592109 448.988567,74.7434558 441.830231,71.6062585 C435.055935,68.643102 426.977688,64.4348844 418.886045,64.4304218 C418.886045,64.4304218 418.886045,71.4768435 418.881579,71.4768435 C418.872648,71.4768435 418.872648,66.5858503 418.868182,66.5858503 C418.35464,66.5858503 417.943806,72.0926803 417.421332,72.106068 C410.32998,72.2801088 403.189506,71.7445986 396.075826,71.8874014 C388.971077,72.0257415 381.821672,70.6423401 374.707992,70.7449796 C367.598777,70.8520816 360.476166,70.9681088 353.366951,71.0395102 C346.248806,71.106449 339.099401,65.3675646 332.003583,65.4032653 C324.876506,65.438966 317.789619,70.2764082 310.698267,70.2764082 C304.602741,70.2764082 298.391109,69.6025578 292.300049,69.5757823 C290.303931,62.341932 290.647781,53.8451701 287.303057,47.5573878 C283.810968,40.9929252 274.022401,38.9669116 269.177239,33.638585 C264.251696,28.2210068 263.264802,18.0195374 257.066567,14.0969252 C251.006765,10.2635646 242.732032,9.25948299 235.573696,7.05942857 C229.777364,5.27885714 223.003069,7.73327891 216.688729,6.85861224 C210.691445,6.02857143 204.86832,0.677931973 198.486996,0.677931973 C191.13664,0.677931973 183.549607,3.76604082 175.636587,4.86383673 C168.348749,5.87684354 160.408935,5.50198639 152.670073,7.4387483 C145.507271,9.2282449 139.259915,15.0117551 131.739866,17.5911293 C124.728895,19.992 116.458628,19.7108571 109.157393,22.7900408 C101.177389,26.1592925 96.2027247,33.1834014 90.7100526,38.8642721 C84.8869271,44.8842993 76.4782267,49.7128163 73.9328421,57.513415 C71.4544413,65.1221224 70.7578097,74.5560272 71.8697409,83.0706395 C72.6556842,89.108517 80.0551619,93.0400544 82.5514251,98.346068 C85.1102065,103.790422 88.2316518,109.475755 92.2685425,113.826776 C91.2995101,120.935673 87.2849474,128.807673 86.3114494,135.916571 C85.342417,143.029932 84.315332,150.129905 83.341834,157.238803 C82.368336,164.347701 78.2332024,170.006259 77.26417,177.115156 C73.0665182,181.671456 75.7190769,189.592544 73.1647611,195.273415 C70.668498,200.829333 66.6137449,205.644463 65.9260445,211.945633 C65.2963968,217.697905 62.3937652,223.878585 63.3806599,229.407728 C64.3898826,235.061823 67.7435385,240.171483 70.2889231,245.214204 C69.3154251,252.349878 66.8459555,258.950041 65.8724575,266.081252 C64.8989595,273.216925 65.0195304,280.495401 64.0460324,287.631075 C63.0725344,294.762286 61.7864453,301.853333 60.8129474,308.984544 C59.4196842,319.239565 59.0892308,329.409796 62.6795628,338.232327 C59.1696113,342.016599 63.4208502,348.420408 60.9111903,353.132898 C57.4280324,359.108299 55.485502,364.298286 54.1368947,371.157279 C52.7838219,378.02966 50.609081,384.768163 49.2292146,391.658395 C47.8493482,398.530776 44.7948866,405.086313 43.3837611,411.972082 C41.9815668,418.84 36.1495101,424.806476 34.7160567,431.68332 C33.2826032,438.546776 37.4132713,446.588354 35.9530243,453.456272 C34.4972429,460.319728 26.9727287,465.884571 25.4901538,472.748027 C24.0075789,479.60702 22.8554575,486.532952 21.3460891,493.391946 C19.8367206,500.246476 18.2380405,507.074231 16.7063441,513.919837 C15.1657166,520.77883 15.4783077,528.039456 13.9198178,534.880599 C12.3568623,541.730667 8.34676518,548.005061 6.76148178,554.837279 C5.17173279,561.678422 10.4187976,570.11717 8.80672065,576.940463 C6.86865587,585.160544 -0.70051417,593.099483 0.741870445,600.645714 C2.24677328,608.540027 9.15950202,615.323156 14.2145466,621.704653 C19.2874534,628.108463 24.5702429,636.243755 32.0679636,639.613007 C39.2575587,642.848381 48.8049838,645.427755 57.2672713,645.427755 C64.3630891,645.427755 71.8295506,641.982639 78.2421336,639.858449 C84.8735304,637.66732 92.7642227,635.690395 98.243498,631.566966 C103.749567,627.425687 106.379798,620.223075 110.296117,614.48419 C115.654822,618.723646 120.0177,624.114449 126.171279,627.010667 C132.284668,629.889034 140.572798,626.854476 147.297972,628.318204 C153.831126,629.737306 160.065085,631.209959 167.02247,631.209959 C173.140324,631.209959 179.133142,631.120707 185.407291,630.045224 C191.413506,629.014367 197.120526,627.077605 203.189259,625.073905 C211.178194,622.432054 218.608931,624.051973 224.561559,620.330177 C229.496032,624.060898 234.059862,626.925878 240.05268,628.88049 C245.87134,630.781551 253.101126,633.066395 259.473518,633.066395 C266.654182,633.066395 273.566911,627.657741 279.908045,625.488925 C286.5707,623.217469 294.345287,621.825143 299.668267,617.536599 C305.040368,613.212354 310.943874,607.625197 314.516344,601.636408 C317.972709,595.83951 319.473146,590.020299 320.830684,583.022966 C324.162012,586.169088 324.237927,588.779701 328.216765,591.78302 C333.914854,596.084952 340.849911,599.016871 347.124061,602.466449 C353.349089,605.889252 358.94447,611.681687 365.674109,614.252136 C372.283178,616.769034 380.508789,615.327619 387.542089,617.005551 C394.401231,618.638857 401.2827,621.624327 408.490158,622.44098 C415.483267,623.230857 422.851486,622.186612 430.121462,622.186612 C433.216113,622.186612 436.435802,622.97649 439.548316,622.824762 C448.349988,622.400816 456.629186,618.754884 464.1537,614.952762 C471.696077,611.141714 480.028862,607.031673 485.561725,600.194993 C485.865385,599.820136 485.07051,596.830204 485.369704,596.446422 C493.340777,600.476136 501.816462,607.174476 511.252247,607.174476 C517.713951,607.174476 523.438834,601.471293 529.253028,599.681796 C535.326227,597.816435 541.109162,600.074503 546.182069,596.544599 C554.733668,601.431129 565.058105,603.385741 575.494182,603.385741 C583.398271,603.385741 591.547968,600.833143 598.438368,598.20468 C605.650291,595.451265 611.326053,587.797932 616.876777,582.68381 C622.271206,586.597497 630.344988,588.172789 638.490219,590.59151 C644.978717,592.52381 651.221607,595.129959 659.666032,595.129959 C661.644287,595.129959 663.738648,598.548299 665.774955,598.418884 C672.857377,597.963701 679.024352,594.264218 685.298502,592.590748 C692.05047,590.787864 698.378206,589.163483 704.250453,586.178014 C710.381704,583.063129 716.780891,580.568544 722.014559,576.422803 C727.355401,572.192272 732.026405,567.76985 736.505389,562.749442 C741.515777,566.404299 748.214158,564.918259 754.131061,566.868408 C759.976514,568.791782 764.933316,570.438476 771.229794,570.438476 C779.348231,570.438476 787.953417,574.021932 794.897405,571.01415 C802.073603,567.90819 809.343579,562.816381 814.612972,556.988245 C819.676947,551.392163 822.825186,546.626122 825.535798,538.981714 C831.934984,544.301116 837.539296,546.090612 844.853927,549.981986 C852.181955,553.877823 861.327478,552.677388 869.325344,554.962231 C874.496494,556.44381 878.225259,564.953959 883.579498,565.699211 C888.893547,566.435537 894.810449,566.257034 900.231672,566.257034 C906.751429,566.257034 912.646004,558.880381 919.013931,557.858449 C925.426514,556.832054 932.473211,559.389116 938.631255,557.380952 C944.784834,555.377252 950.554372,552.26683 956.35517,549.339374 C962.115777,546.429769 967.215478,547.500789 972.525061,543.73883 C977.906093,548.835102 984.296348,549.874884 991.244802,552.668463 C998.050356,555.404027 1005.92765,558.898231 1013.52808,558.898231 C1019.93173,558.898231 1027.44732,558.17083 1033.54284,556.144816 C1039.49547,554.167891 1044.09056,547.786395 1049.42247,543.988735 C1055.74574,539.485986 1059.34947,532.203048 1064.52509,526.084844 C1069.52208,520.176381 1075.17998,514.932844 1078.93107,507.841796 C1082.55266,500.987265 1084.93728,493.682014 1087.23706,486.015293 C1089.46985,478.571701 1089.42073,470.936218 1090.2558,462.997279 C1091.00602,455.839293 1092.58683,449.243592 1092.13581,442.420299 C1091.66246,435.235537 1095.81545,427.22966 1094.06941,420.625034 C1092.22959,413.672327 1086.62974,407.777252 1083.45471,401.708136 C1080.14571,395.38019 1072.87573,392.381333 1068.1958,387.285061" id="Fill-1" fill="#FF009E" sketch:type="MSShapeGroup"></path>
                <path d="M1068.1958,387.285061 C1063.74361,382.443156 1060.85437,376.454367 1055.2054,372.687946 C1049.82437,369.10449 1046.29656,363.428082 1039.9063,360.848707 C1040.4913,357.399129 1036.70001,355.578395 1036.71341,351.936925 C1036.71341,351.557605 1039.47314,352.481361 1039.46421,352.102041 C1045.76069,350.196517 1051.624,346.693388 1056.82641,342.967129 C1062.08241,339.200707 1065.49858,333.390422 1069.28987,328.115646 C1073.00523,322.939048 1074.79594,317.043973 1076.76526,310.751728 C1078.64081,304.767401 1077.68964,298.921415 1077.68964,292.218612 C1077.68964,284.650068 1081.02989,277.16185 1078.49344,270.717878 C1075.79623,263.86781 1069.53994,259.472163 1064.50276,254.420517 C1059.46111,249.364408 1053.76302,246.43249 1046.92174,243.723701 C1040.4779,241.171102 1034.30646,234.213932 1026.73282,234.213932 C1016.73884,234.213932 1016.73884,234.450449 1006.74485,234.450449 C996.741939,234.450449 996.741939,241.260354 986.739024,241.260354 C976.727178,241.260354 976.727178,234.512925 966.719798,234.512925 C956.707951,234.512925 956.707951,237.587646 946.696105,237.587646 C939.993259,237.587646 934.447,241.175565 928.391664,243.214966 C922.171101,245.312381 917.562615,248.404952 912.404862,252.394503 C907.314093,256.334966 899.329623,254.188463 895.64998,259.717605 C890.358259,257.169469 885.789964,260.088 879.542607,258.463619 C873.884709,256.995429 867.860632,256.808 861.430186,256.107374 C855.602595,255.469224 849.645502,250.096272 843.188263,250.096272 C836.284466,250.096272 829.085939,250.015946 822.517061,250.591619 C815.318534,251.220844 809.057781,257.530939 802.904202,258.490395 C794.7813,259.762231 787.542583,259.253497 782.599178,260.351293 C774.860316,262.064925 770.091069,268.73649 763.919628,272.886694 C757.51151,277.188626 752.581502,281.138014 748.388316,287.528435 C744.284441,293.78498 740.220757,299.421224 738.747113,307.168272 C738.349676,309.234449 736.460733,310.832054 736.282109,312.889306 C726.73915,313.527456 717.888356,317.566095 710.064648,321.979592 C710.989024,317.624109 707.769336,311.978939 707.760405,307.30215 C707.742543,299.760381 711.37753,292.156136 708.836611,285.734476 C706.134931,278.920109 699.056976,275.171537 694.03319,270.142204 C689.004939,265.108408 683.146089,263.372463 676.331603,260.677061 C669.910089,258.133388 664.421883,252.403429 656.87504,252.403429 C656.825919,252.403429 656.825919,251.921469 656.772332,251.921469 C656.660692,251.921469 656.64283,248.69502 656.53119,248.69502 C649.024538,248.730721 641.567008,255.687891 634.002304,255.861932 C626.482255,256.040435 618.913085,254.469605 611.366243,254.777524 C603.828332,255.08098 598.282073,251.649252 590.76649,252.086585 C592.039182,247.043864 588.346142,244.058395 589.346433,238.631891 C590.288672,233.517769 590.212757,228.296544 590.87813,222.812027 C591.704263,216.051211 593.258287,209.803592 593.459239,203.350694 C593.673587,196.540789 598.33566,189.833524 597.862308,183.389551 C597.366628,176.606422 597.786393,169.515374 596.536028,163.160653 C595.232077,156.511401 592.307117,150.013878 590.185964,143.864435 C587.99336,137.496327 580.750178,133.435374 577.691251,127.638476 C574.583202,121.734476 573.073834,115.143238 569.077134,109.864 C565.09383,104.602612 558.190032,102.37132 553.340405,97.7614694 C546.566109,91.3174966 542.828413,80.0583946 534.035672,77.6262857 C529.2307,74.3775238 523.126243,72.9896599 517.477275,71.289415 C511.95781,69.6248707 505.353206,69.3526531 499.413976,69.3526531 C491.960911,69.3526531 486.070802,75.9751293 479.461733,78.4563265 C472.67404,81.0089252 465.21651,81.1963537 459.804219,86.0248707 C454.775968,80.2592109 448.988567,74.7434558 441.830231,71.6062585 C435.055935,68.643102 426.977688,64.4348844 418.886045,64.4304218 C418.886045,64.4304218 418.886045,71.4768435 418.881579,71.4768435 C418.872648,71.4768435 418.872648,66.5858503 418.868182,66.5858503 C418.35464,66.5858503 417.943806,72.0926803 417.421332,72.106068 C410.32998,72.2801088 403.189506,71.7445986 396.075826,71.8874014 C388.971077,72.0257415 381.821672,70.6423401 374.707992,70.7449796 C367.598777,70.8520816 360.476166,70.9681088 353.366951,71.0395102 C346.248806,71.106449 339.099401,65.3675646 332.003583,65.4032653 C324.876506,65.438966 317.789619,70.2764082 310.698267,70.2764082 C304.602741,70.2764082 298.391109,69.6025578 292.300049,69.5757823 C290.303931,62.341932 290.647781,53.8451701 287.303057,47.5573878 C283.810968,40.9929252 274.022401,38.9669116 269.177239,33.638585 C264.251696,28.2210068 263.264802,18.0195374 257.066567,14.0969252 C251.006765,10.2635646 242.732032,9.25948299 235.573696,7.05942857 C229.777364,5.27885714 223.003069,7.73327891 216.688729,6.85861224 C210.691445,6.02857143 204.86832,0.677931973 198.486996,0.677931973 C191.13664,0.677931973 183.549607,3.76604082 175.636587,4.86383673 C168.348749,5.87684354 160.408935,5.50198639 152.670073,7.4387483 C145.507271,9.2282449 139.259915,15.0117551 131.739866,17.5911293 C124.728895,19.992 116.458628,19.7108571 109.157393,22.7900408 C101.177389,26.1592925 96.2027247,33.1834014 90.7100526,38.8642721 C84.8869271,44.8842993 76.4782267,49.7128163 73.9328421,57.513415 C71.4544413,65.1221224 70.7578097,74.5560272 71.8697409,83.0706395 C72.6556842,89.108517 80.0551619,93.0400544 82.5514251,98.346068 C85.1102065,103.790422 88.2316518,109.475755 92.2685425,113.826776 C91.2995101,120.935673 87.2849474,128.807673 86.3114494,135.916571 C85.342417,143.029932 84.315332,150.129905 83.341834,157.238803 C82.368336,164.347701 78.2332024,170.006259 77.26417,177.115156 C73.0665182,181.671456 75.7190769,189.592544 73.1647611,195.273415 C70.668498,200.829333 66.6137449,205.644463 65.9260445,211.945633 C65.2963968,217.697905 62.3937652,223.878585 63.3806599,229.407728 C64.3898826,235.061823 67.7435385,240.171483 70.2889231,245.214204 C69.3154251,252.349878 66.8459555,258.950041 65.8724575,266.081252 C64.8989595,273.216925 65.0195304,280.495401 64.0460324,287.631075 C63.0725344,294.762286 61.7864453,301.853333 60.8129474,308.984544 C59.4196842,319.239565 59.0892308,329.409796 62.6795628,338.232327 C59.1696113,342.016599 63.4208502,348.420408 60.9111903,353.132898 C57.4280324,359.108299 55.485502,364.298286 54.1368947,371.157279 C52.7838219,378.02966 50.609081,384.768163 49.2292146,391.658395 C47.8493482,398.530776 44.7948866,405.086313 43.3837611,411.972082 C41.9815668,418.84 36.1495101,424.806476 34.7160567,431.68332 C33.2826032,438.546776 37.4132713,446.588354 35.9530243,453.456272 C34.4972429,460.319728 26.9727287,465.884571 25.4901538,472.748027 C24.0075789,479.60702 22.8554575,486.532952 21.3460891,493.391946 C19.8367206,500.246476 18.2380405,507.074231 16.7063441,513.919837 C15.1657166,520.77883 15.4783077,528.039456 13.9198178,534.880599 C12.3568623,541.730667 8.34676518,548.005061 6.76148178,554.837279 C5.17173279,561.678422 10.4187976,570.11717 8.80672065,576.940463 C6.86865587,585.160544 -0.70051417,593.099483 0.741870445,600.645714 C2.24677328,608.540027 9.15950202,615.323156 14.2145466,621.704653 C19.2874534,628.108463 24.5702429,636.243755 32.0679636,639.613007 C39.2575587,642.848381 48.8049838,645.427755 57.2672713,645.427755 C64.3630891,645.427755 71.8295506,641.982639 78.2421336,639.858449 C84.8735304,637.66732 92.7642227,635.690395 98.243498,631.566966 C103.749567,627.425687 106.379798,620.223075 110.296117,614.48419 C115.654822,618.723646 120.0177,624.114449 126.171279,627.010667 C132.284668,629.889034 140.572798,626.854476 147.297972,628.318204 C153.831126,629.737306 160.065085,631.209959 167.02247,631.209959 C173.140324,631.209959 179.133142,631.120707 185.407291,630.045224 C191.413506,629.014367 197.120526,627.077605 203.189259,625.073905 C211.178194,622.432054 218.608931,624.051973 224.561559,620.330177 C229.496032,624.060898 234.059862,626.925878 240.05268,628.88049 C245.87134,630.781551 253.101126,633.066395 259.473518,633.066395 C266.654182,633.066395 273.566911,627.657741 279.908045,625.488925 C286.5707,623.217469 294.345287,621.825143 299.668267,617.536599 C305.040368,613.212354 310.943874,607.625197 314.516344,601.636408 C317.972709,595.83951 319.473146,590.020299 320.830684,583.022966 C324.162012,586.169088 324.237927,588.779701 328.216765,591.78302 C333.914854,596.084952 340.849911,599.016871 347.124061,602.466449 C353.349089,605.889252 358.94447,611.681687 365.674109,614.252136 C372.283178,616.769034 380.508789,615.327619 387.542089,617.005551 C394.401231,618.638857 401.2827,621.624327 408.490158,622.44098 C415.483267,623.230857 422.851486,622.186612 430.121462,622.186612 C433.216113,622.186612 436.435802,622.97649 439.548316,622.824762 C448.349988,622.400816 456.629186,618.754884 464.1537,614.952762 C471.696077,611.141714 480.028862,607.031673 485.561725,600.194993 C485.865385,599.820136 485.07051,596.830204 485.369704,596.446422 C493.340777,600.476136 501.816462,607.174476 511.252247,607.174476 C517.713951,607.174476 523.438834,601.471293 529.253028,599.681796 C535.326227,597.816435 541.109162,600.074503 546.182069,596.544599 C554.733668,601.431129 565.058105,603.385741 575.494182,603.385741 C583.398271,603.385741 591.547968,600.833143 598.438368,598.20468 C605.650291,595.451265 611.326053,587.797932 616.876777,582.68381 C622.271206,586.597497 630.344988,588.172789 638.490219,590.59151 C644.978717,592.52381 651.221607,595.129959 659.666032,595.129959 C661.644287,595.129959 663.738648,598.548299 665.774955,598.418884 C672.857377,597.963701 679.024352,594.264218 685.298502,592.590748 C692.05047,590.787864 698.378206,589.163483 704.250453,586.178014 C710.381704,583.063129 716.780891,580.568544 722.014559,576.422803 C727.355401,572.192272 732.026405,567.76985 736.505389,562.749442 C741.515777,566.404299 748.214158,564.918259 754.131061,566.868408 C759.976514,568.791782 764.933316,570.438476 771.229794,570.438476 C779.348231,570.438476 787.953417,574.021932 794.897405,571.01415 C802.073603,567.90819 809.343579,562.816381 814.612972,556.988245 C819.676947,551.392163 822.825186,546.626122 825.535798,538.981714 C831.934984,544.301116 837.539296,546.090612 844.853927,549.981986 C852.181955,553.877823 861.327478,552.677388 869.325344,554.962231 C874.496494,556.44381 878.225259,564.953959 883.579498,565.699211 C888.893547,566.435537 894.810449,566.257034 900.231672,566.257034 C906.751429,566.257034 912.646004,558.880381 919.013931,557.858449 C925.426514,556.832054 932.473211,559.389116 938.631255,557.380952 C944.784834,555.377252 950.554372,552.26683 956.35517,549.339374 C962.115777,546.429769 967.215478,547.500789 972.525061,543.73883 C977.906093,548.835102 984.296348,549.874884 991.244802,552.668463 C998.050356,555.404027 1005.92765,558.898231 1013.52808,558.898231 C1019.93173,558.898231 1027.44732,558.17083 1033.54284,556.144816 C1039.49547,554.167891 1044.09056,547.786395 1049.42247,543.988735 C1055.74574,539.485986 1059.34947,532.203048 1064.52509,526.084844 C1069.52208,520.176381 1075.17998,514.932844 1078.93107,507.841796 C1082.55266,500.987265 1084.93728,493.682014 1087.23706,486.015293 C1089.46985,478.571701 1089.42073,470.936218 1090.2558,462.997279 C1091.00602,455.839293 1092.58683,449.243592 1092.13581,442.420299 C1091.66246,435.235537 1095.81545,427.22966 1094.06941,420.625034 C1092.22959,413.672327 1086.62974,407.777252 1083.45471,401.708136 C1080.14571,395.38019 1072.87573,392.381333 1068.1958,387.285061 L1068.1958,387.285061 Z" id="Stroke-2" stroke="#231F1F" stroke-width="6" sketch:type="MSShapeGroup"></path>
                <path d="M128.229915,96.851102 C127.819081,98.185415 124.19749,99.3010612 123.996538,100.791565 C123.121283,107.213224 127.4663,114.344435 126.591045,120.770558 C125.715789,127.192218 123.759862,133.466612 122.880142,139.888272 C122.004887,146.309932 117.655405,152.26302 116.78015,158.68468 C115.900429,165.10634 113.649773,171.340571 112.770053,177.762231 C111.894798,184.183891 113.989158,190.319946 113.109437,196.741605 C105.303591,200.378612 101.64181,208.02302 100.69064,215.167619 C99.6635547,222.941442 104.723065,230.255619 110.69802,234.829769 C109.804903,241.362993 107.871304,248.842286 106.978186,255.37551 C106.085069,261.904272 102.048178,268.009088 101.155061,274.542313 C100.261943,281.075537 104.187194,288.264762 103.294077,294.797986 C102.405425,301.331211 95.1845709,307.003156 94.295919,313.536381 C92.9562429,323.380844 99.8823684,333.091429 106.35747,336.192925 C112.926348,339.334585 123.710741,337.692354 130.864611,333.890231 C137.237004,330.503129 138.19264,322.497252 139.402814,313.598857 C140.353984,306.605986 140.644247,299.523864 141.595417,292.530993 C142.551053,285.542585 151.084789,279.585034 152.040425,272.592163 C152.996061,265.599293 146.422717,257.580027 147.378352,250.591619 C148.333988,243.598748 155.197595,238.658667 156.153231,231.665796 C162.80249,229.122122 166.651826,223.044082 173.082271,219.799782 C179.476992,216.577796 185.46981,212.998803 191.493887,209.116354 C197.535826,205.220517 201.666494,199.312054 207.181494,194.782531 C212.750081,190.208381 222.913757,190.685878 227.790178,185.495891 C232.724652,180.238966 234.314401,172.112599 238.373619,166.257687 C242.473028,160.35815 244.969291,153.820463 248.010356,147.340789 C251.038024,140.887891 252.784069,134.37698 254.597097,127.384109 C256.369935,120.565279 262.970073,114.366748 263.434494,107.061497 C263.858725,100.363156 260.049579,93.5621769 258.9957,87.0601905 C257.910563,80.3261497 253.395854,75.3503673 250.564672,69.4731429 C247.635247,63.3861769 244.643304,59.0440816 239.664174,54.5993469 C234.890462,50.3331156 231.094713,45.8392925 224.284692,43.7418776 C217.742607,41.7337143 211.120142,43.0769524 204.033255,42.6931701 C197.232166,42.3272381 190.350696,37.6325986 183.308466,38.467102 C176.489514,39.2748299 169.554457,40.8322721 162.739972,42.4923537 C155.970142,44.1435102 148.436696,43.9471565 141.903543,46.178449 C135.182834,48.4722177 131.27098,57.7677823 125.041486,60.3962449 C118.057308,63.341551 112.645016,64.256381 110.903437,69.3838912 C108.880526,75.3414422 107.808785,83.0572517 111.162441,88.3409524 C114.395526,93.4282993 121.674433,95.9273469 128.229915,96.851102 L128.229915,96.851102 Z M204.528935,84.0122449 C213.107328,87.3636463 212.830462,95.4141497 212.968895,104.258993 C213.093931,112.380898 215.911717,122.011156 213.19664,129.115592 C210.142178,137.103619 204.90851,144.127728 200.014227,150.580626 C194.98151,157.212027 186.760364,160.487565 180.276332,165.637388 C173.823559,170.760435 169.978688,173.580789 162.579211,177.373986 C163.49019,170.729197 164.05732,167.882068 164.963834,161.232816 C165.874814,154.583565 165.995385,147.827211 166.901899,141.182422 C167.812879,134.53317 166.258854,127.549224 167.165368,120.899973 C168.071883,114.255184 170.17964,107.771048 171.081688,101.121796 C171.992668,94.4368435 173.122462,90.5945578 169.898308,87.0200272 C176.025093,85.3867211 179.986069,80.4912653 185.876178,79.9557551 C192.77551,79.3309932 199.451563,82.0308571 204.528935,84.0122449 L204.528935,84.0122449 Z M285.239955,149.478367 C291.371206,149.505143 297.497992,146.747265 303.638174,146.72049 C309.773891,146.693714 319.200745,146.934694 325.336462,146.912381 C325.340927,154.244408 319.312385,164.352163 319.3883,171.670803 C319.464215,179.00283 320.299279,186.343782 320.451109,193.662422 C320.607405,200.994449 320.527024,208.348789 320.754769,215.662966 C320.98698,222.990531 326.953004,230.099429 327.26113,237.413605 C327.569255,244.736707 322.822336,252.291864 323.210842,259.601578 C323.603814,266.920218 329.909223,273.872925 330.382575,281.178177 C330.855927,288.492354 326.104543,296.154612 326.662741,303.455401 C327.426356,313.406966 335.200943,313.964789 342.618283,314.955483 C349.700704,315.901551 357.095717,317.128762 363.231433,311.787048 C368.844676,306.900517 368.87147,300.496707 368.206097,291.821442 C367.688089,285.065088 375.351036,277.719673 374.900012,270.954395 C374.453453,264.193578 367.250462,257.847782 366.875352,251.073578 C366.495777,244.308299 372.461802,237.226177 372.153676,230.44751 C371.850016,223.682231 368.139113,217.064218 367.902437,210.281088 C367.670227,203.511347 371.425785,196.643429 371.26949,189.864762 C371.108729,183.090558 366.535968,176.410068 366.455587,169.626939 C366.370741,162.852735 368.134648,157.63151 368.125717,150.848381 C375.79313,150.741279 382.03602,148.197605 389.703433,148.072653 C397.370846,147.947701 405.145433,152.651265 412.817312,152.463837 C421.726158,152.24517 431.362895,145.939537 435.489097,139.946286 C440.097583,133.265796 440.865664,121.774639 438.646267,114.884408 C436.42687,107.998639 428.214656,105.414803 418.247466,105.660245 C411.160579,105.834286 404.118348,108.458286 397.040393,108.596626 C389.957972,108.739429 382.737117,101.117333 375.659162,101.219973 C368.572275,101.327075 361.516648,102.25083 354.434227,102.322231 C347.351806,102.393633 340.287247,103.500354 333.204826,103.536054 C326.122405,103.571755 319.044449,102.116952 311.966494,102.116952 C304.884073,102.121415 297.815049,102.161578 290.737093,102.13034 C281.747866,102.090177 272.173648,107.485442 268.069773,113.474231 C263.537202,120.087782 262.702138,131.431673 264.997449,138.384381 C267.261502,145.252299 275.42013,149.433741 285.239955,149.478367 L285.239955,149.478367 Z M391.735275,185.812735 C392.244352,192.403973 392.038935,199.088925 392.463166,205.693551 C392.887397,212.289252 391.949623,218.983129 392.347061,225.583293 C392.748964,232.183456 395.709648,238.605116 396.151741,245.196354 C396.593834,251.80098 389.078251,258.994667 389.627518,265.57698 C390.176785,272.17268 390.940401,278.844245 391.65936,285.404245 C392.382785,291.986558 399.460741,297.770068 400.420842,304.303293 C401.823036,313.848762 405.011466,323.139864 412.38415,324.268898 C419.631798,325.380082 429.473951,319.784 435.493563,314.589551 C441.106806,309.747646 447.501526,301.045605 446.210972,292.24985 C445.25087,285.716626 440.620057,279.705524 439.896632,273.123211 C439.177672,266.563211 441.191652,259.753306 440.642385,253.157605 C440.093117,246.575293 440.035065,239.99298 439.588506,233.392816 C439.150879,226.801578 438.829356,220.214803 438.431919,213.610177 C438.030016,207.014476 432.336393,200.744544 431.912162,194.144381 C431.487931,187.544218 430.974389,180.984218 430.460846,174.397442 C429.692765,164.454803 426.383765,156.44 418.966425,155.444844 C411.879538,154.498776 405.538405,162.767946 399.402688,168.10966 C393.789445,172.99619 391.060972,177.137469 391.735275,185.812735 L391.735275,185.812735 Z M558.761628,218.902803 C559.627951,211.825143 563.298664,204.796571 563.307595,197.812626 C563.320992,190.645714 561.266822,183.380626 560.248668,176.494857 C559.199255,169.408272 552.554462,163.999619 550.272547,157.408381 C547.950441,150.696653 545.80696,144.810503 542.046935,138.826177 C538.344964,132.931102 534.433109,128.115973 529.19051,123.131265 C524.832097,118.985524 523.112846,113.121687 517.941696,113.273415 C513.203709,107.025796 503.218656,105.861061 494.73404,107.503293 C487.455134,108.917932 481.806166,114.228408 478.072935,123.247293 C475.473964,129.52615 467.440372,133.886095 465.046818,140.41932 C462.684522,146.863293 460.76432,153.766912 458.768202,160.367075 C456.767619,166.989551 460.661611,175.231946 459.187968,181.921361 C457.696462,188.713415 452.936146,194.920871 452.163599,201.695075 C451.368725,208.621007 454.950126,215.671891 455.093024,222.477333 C455.235923,229.430041 457.19185,235.65981 458.509198,242.376 C459.723838,248.578993 460.063223,256.067211 463.131081,263.635755 C465.868486,270.378721 468.730927,277.144 472.933045,283.190803 C477.353976,289.558912 480.524543,297.475537 486.557551,301.13932 C492.809372,304.93698 501.619976,309.243374 509.586583,307.971537 C516.856559,306.811265 523.684441,301.058993 529.065474,296.649959 C534.312538,292.35249 535.46466,284.087782 539.175563,277.831238 C542.676583,271.927238 551.281769,267.910912 553.639599,261.230422 C556.028688,254.474068 558.033737,247.092952 559.476121,240.501714 C561.132854,232.919782 558.033737,224.882667 558.761628,218.902803 L558.761628,218.902803 Z M512.310591,234.392435 C511.368352,238.863946 508.470186,241.367456 508.032559,245.789878 C505.143324,241.389769 503.053429,239.49317 501.673563,234.303184 C499.06566,224.50781 493.680162,214.248327 494.61347,203.783565 C495.18953,197.308354 496.873057,190.453823 498.297579,184.000925 C499.699773,177.655129 504.361846,168.658558 506.353498,162.375238 C509.64017,168.011483 510.394854,177.963048 511.859567,184.49181 C513.234968,190.632327 515.883061,196.710367 515.753559,203.587211 C515.566004,213.681578 514.445142,224.289143 512.310591,234.392435 L512.310591,234.392435 Z" id="Stroke-3" stroke="#231F1F" stroke-width="12" sketch:type="MSShapeGroup"></path>
                <path d="M190.877636,424.431619 C183.00034,424.431619 175.12751,421.379211 167.250215,421.379211 C159.372919,421.379211 151.500089,422.231565 143.622794,422.231565 C135.749964,422.231565 125.224575,426.261279 117.347279,426.261279 C119.048668,418.001034 121.692296,405.844952 123.349028,397.584707 C131.337964,397.584707 140.965769,396.51815 148.954704,396.51815 C156.939174,396.51815 164.928109,398.352272 172.912579,398.352272 C180.901514,398.352272 188.885984,395.148136 196.874919,395.148136 C204.859389,395.148136 212.848324,395.929088 220.832794,395.929088 C229.808623,395.929088 233.457008,393.046259 237.565348,387.061932 C242.115781,380.434993 249.314308,372.995864 247.027927,366.052082 C244.76834,359.179701 236.163154,353.195374 226.316534,353.195374 C218.555344,353.195374 210.794154,354.119129 203.032964,354.119129 C195.271773,354.119129 187.510583,354.31102 179.749393,354.31102 C171.992668,354.31102 164.231478,357.939102 156.470287,357.939102 C148.709097,357.939102 140.947907,357.858776 133.186717,357.858776 C125.425526,357.858776 117.664336,357.046585 109.903146,357.046585 C99.422413,357.046585 88.5487085,358.965497 84.779753,366.507265 C83.1989352,369.068789 86.5391943,374.053497 85.882753,377.39151 C84.520749,384.321905 82.4576478,391.113959 81.0688502,398.044354 C79.6800526,404.965823 75.2323279,411.271456 73.8167368,418.192925 C72.4011457,425.109932 71.9903117,432.232218 70.5523927,439.149224 C69.1100081,446.061769 69.4493927,453.344707 67.9802146,460.257252 C66.515502,467.165333 67.9400243,474.698177 66.4440526,481.601796 C64.9525466,488.505415 58.5667571,494.346939 57.0439919,501.246095 C55.5256923,508.145252 56.383085,515.566531 54.8335263,522.461224 C53.2884332,529.355918 48.0145749,535.398259 46.4426883,542.28849 C44.8708016,549.174259 48.2691134,557.202449 46.6704332,564.083755 C45.0762186,570.965061 41.9592389,577.498286 40.3337652,584.375129 C37.9446761,594.505197 42.5397652,599.132898 49.1354372,602.033578 C55.5256923,604.845007 64.7337328,608.473088 72.1198138,604.546014 C78.5457935,601.127673 81.1313684,592.407782 83.1319514,583.933333 C84.6413198,577.538449 89.5400688,571.933442 91.0271093,565.534095 C92.5141498,559.130286 94.6174413,552.864816 96.0776883,546.461007 C97.5379352,540.052735 93.0321579,532.301224 94.4700769,525.88849 C95.907996,519.475755 98.9267328,513.42449 100.346789,507.011755 C101.762381,500.594558 101.731121,493.869442 103.124385,487.447782 C104.522113,481.026122 110.139822,476.692952 111.515223,470.271293 C119.821215,470.271293 127.229623,467.90166 135.540081,467.90166 C143.846073,467.90166 152.15653,464.452082 160.466988,464.452082 C168.777445,464.452082 177.083437,467.321524 185.393895,467.321524 C194.365259,467.321524 202.729304,465.683755 206.837644,459.699429 C211.383611,453.07249 209.43215,443.861714 207.145769,436.922395 C204.886182,430.050014 200.719789,424.431619 190.877636,424.431619 L190.877636,424.431619 Z M234.720769,502.424218 C236.221206,496.466667 232.965794,488.389388 229.098595,484.310585 C225.191206,480.196082 217.644364,482.940571 212.138296,482.940571 C205.466709,482.940571 198.308372,480.218395 194.092858,484.288272 C189.863947,488.367075 190.122951,496.051646 188.604652,502.058286 C186.211097,511.554667 186.130717,521.180463 185.451947,530.685769 C185.063441,536.139048 185.724348,541.837769 184.965198,547.299973 C184.884818,547.875646 184.706194,551.717932 184.357879,553.203973 C181.825891,554.221442 176.03849,549.080544 174.028976,549.294748 C168.639012,549.865959 166.357097,552.039238 161.980822,548.495946 C164.655709,550.660299 160.283899,550.566585 159.859668,545.956735 C159.515818,542.203701 159.060328,538.459592 159.457765,534.612844 C160.038291,528.994449 167.339526,524.161469 168.089745,518.529687 C168.835498,512.911293 169.523198,507.252735 170.233227,501.638803 C171.47466,491.830041 161.565522,487.987755 155.099352,484.877333 C148.517077,481.704435 141.23817,478.790367 134.106628,482.574639 C127.7387,485.952816 125.49251,492.55298 124.358251,501.482612 C123.572308,507.681143 122.411255,514.620463 121.303789,521.707048 C120.267773,528.351837 112.051093,534.510204 111.667053,541.230857 C111.260684,548.268354 119.312138,554.703401 120.633951,561.049197 C122.054008,567.868027 123.402615,572.892898 128.055757,577.97132 C133.744915,584.187701 137.174486,593.389551 144.413202,596.23668 C151.709972,599.110585 160.717061,595.638694 168.982862,595.397714 C176.614551,595.170122 184.223911,594.451646 192.181587,591.823184 C200.054417,589.221497 209.257992,589.91766 213.92453,585.736218 C219.528842,580.71581 220.189749,571.527347 222.592235,564.900408 C224.941134,558.416272 223.177227,551.084245 223.931911,543.765605 C224.65087,536.786122 228.777073,529.96283 229.339737,522.836082 C229.906866,515.620082 233.014915,509.180571 234.720769,502.424218 L234.720769,502.424218 Z M443.187769,539.976871 C434.506668,540.396354 426.950895,539.115592 419.587142,537.825905 C411.307943,536.380027 405.207951,532.162884 398.179117,528.757932 C391.029713,525.299429 384.058931,522.840544 377.73566,517.579156 C371.832154,512.661388 364.383555,509.046694 358.806036,502.745524 C352.402385,495.507211 346.222012,489.518422 338.893984,485.381605 C342.475385,482.521088 344.212498,478.330721 347.365202,474.782966 C351.71915,469.88751 359.627704,467.459864 362.570526,461.97981 C365.616057,456.307864 363.606543,448.413551 365.352587,442.353361 C367.12096,436.212844 368.313271,430.210667 368.974178,423.913959 C369.644016,417.536925 370.693429,411.316082 370.461219,405.028299 C370.211146,398.24517 373.752356,390.123265 372.265316,383.027755 C370.764879,375.865306 366.330551,368.751946 362.700028,362.910422 C358.94447,356.868082 351.866514,353.896 344.882336,351.053333 C339.13066,348.714939 332.838648,343.368762 326.100077,343.806095 C319.959895,344.207728 316.883105,346.077551 310.541972,348.023238 C311.323449,340.695673 304.82602,336.094748 305.603032,328.771646 C306.380045,321.444082 307.782239,314.250395 308.563717,306.927293 C308.974551,300.724299 315.364806,293.584163 315.829227,285.261442 C316.222198,278.277497 310.010567,270.642014 310.028429,262.98868 C310.046291,255.638803 313.703607,248.195211 313.033769,240.903347 C312.332672,233.285714 311.993287,225.730558 310.171328,218.929578 C308.112692,211.271782 307.55896,202.51619 303.566725,196.924571 C299.194915,190.797442 290.152101,190.056653 282.770486,187.776272 C276.670494,185.888599 269.851543,182.943293 261.255287,184.572136 C254.829308,185.790422 249.617968,191.489143 243.147332,194.238095 C236.980356,196.857633 229.228097,196.545252 223.503215,200.338449 C217.80066,204.118259 214.201397,210.437279 209.405356,215.167619 C204.457486,220.045224 201.420887,225.654694 197.942194,231.317714 C193.673093,238.279347 191.645717,244.848272 189.546891,252.135673 C187.381081,259.681905 180.539802,266.116952 179.633287,273.855075 C178.731239,281.59766 182.446607,289.840054 181.723182,297.609415 C181.004223,305.378776 180.271866,313.415891 178.650858,321.046912 C176.502911,331.127891 177.476409,338.924027 184.031891,341.878259 C190.462336,344.774476 201.979085,346.157878 209.32051,342.24419 C215.728628,338.82585 215.228482,328.298612 217.054907,319.717061 C218.363324,313.567619 224.87415,309.457578 225.343036,302.491483 C232.800567,300.559184 237.962785,295.721741 245.447109,294.115211 C252.976089,292.499755 259.553899,294.467755 267.114138,293.249469 C266.890858,298.626884 271.445757,302.161252 271.08851,307.56098 C270.307032,314.901932 267.158794,322.046531 266.377316,329.387483 C265.600304,336.723973 262.027834,343.765932 261.250822,351.102422 C260.469344,358.438912 262.487789,366.074395 261.706312,373.415347 C260.9293,380.751837 256.745045,387.726857 255.968032,395.06781 C255.186555,402.404299 259.044822,410.236136 258.26781,417.572626 C257.486332,424.909116 256.387798,432.214367 255.60632,439.550857 C254.829308,446.89181 254.177332,454.241687 253.395854,461.578177 C252.618842,468.919129 246.175,475.65317 245.393522,482.994122 C244.612045,490.330612 248.91687,498.207075 248.135393,505.543565 C247.353915,512.884517 245.661457,520.12283 244.884445,527.463782 C244.102968,534.800272 240.079474,541.793143 239.297996,549.129633 C238.516518,556.470585 242.289939,564.289034 241.508462,571.625524 C240.472445,581.353959 244.053846,585.053442 250.511085,588.195102 C257.133551,591.417088 265.984344,596.241143 273.0623,592.505959 C279.430227,589.145633 280.689522,580.153524 281.645158,571.148027 C282.565069,562.481687 282.53381,553.712707 283.458186,545.041905 C284.378097,536.375565 291.339947,530.257361 292.259858,521.59102 C298.467024,521.604408 302.535174,517.213224 307.929603,519.109823 C313.082891,520.926095 315.646138,527.981442 320.281417,532.70732 C325.265012,537.790204 329.248316,543.546939 333.995235,548.674449 C338.724291,553.775184 345.587899,556.863293 351.335109,561.200925 C357.435101,565.806313 364.964081,567.649361 371.885741,570.942748 C378.735951,574.200435 384.626061,579.979483 392.070194,581.983184 C399.38036,583.942259 406.976324,586.369905 414.657134,587.141932 C422.190579,587.896109 430.219704,589.462476 437.922842,589.092082 C446.760239,588.663673 454.575016,581.702041 458.714615,575.704327 C463.367757,568.974748 466.908968,558.385034 464.756555,551.543891 C462.581814,544.640272 453.266599,539.490449 443.187769,539.976871 L443.187769,539.976871 Z M232.479045,253.760054 C236.573988,245.325769 242.758826,240.28751 253.252955,235.561633 C264.349939,230.568 259.509243,230.224381 262.804846,239.158476 C263.71136,241.626286 266.591664,241.813714 266.783684,245.343619 C260.634571,246.29415 255.923377,249.614313 249.796591,250.770122 C243.687668,251.925932 238.574571,252.385578 232.479045,253.760054 L232.479045,253.760054 Z M296.180644,460.301878 C296.921931,453.326857 299.194915,447.601361 299.931737,440.62634 C300.673024,433.655782 303.526534,426.903891 304.267822,419.933333 C305.009109,412.958313 303.522069,406.817796 304.263356,399.847238 C310.8367,396.241469 316.226664,391.096109 320.308211,391.390639 C323.929802,391.653932 324.045907,397.553469 324.94349,403.064762 C325.93485,409.116027 328.399854,415.368109 327.980089,421.651429 C327.265595,432.33932 319.723219,438.12283 314.860194,444.272272 C309.537215,451.00185 305.0493,456.580082 296.180644,460.301878 L296.180644,460.301878 Z" id="Stroke-4" stroke="#231F1F" stroke-width="12" sketch:type="MSShapeGroup"></path>
                <path d="M460.706267,345.845497 C452.427069,344.662912 444.786449,342.427156 437.931773,344.645061 C430.661798,346.996844 423.440943,350.959619 417.649077,356.207619 C412.196595,361.152163 407.226397,367.582748 402.970692,374.272163 C398.969526,380.564408 393.454526,386.861116 390.417927,394.014639 C387.425984,401.065524 387.198239,409.473034 385.050291,416.71581 C382.79517,424.333442 384.197364,432.616 382.777308,439.724898 C381.111644,448.078857 378.34298,455.428735 377.677607,461.970884 C376.686247,471.677007 378.557328,482.034667 385.010101,485.180789 C391.641498,488.411701 402.492874,484.515864 409.557433,480.794068 C415.92536,477.438204 420.457931,470.891592 421.377842,461.872707 C421.788676,457.865306 419.078065,450.48419 420.29717,442.540789 C421.190287,436.70819 428.156603,431.366476 429.732955,425.034068 C431.300377,418.728435 432.305134,412.503129 434.752275,407.058776 C437.690632,400.534476 439.80732,395.719347 444.33096,392.586612 C445.679567,397.856925 445.264267,402.908571 445.188352,409.307918 C445.121368,415.278857 445.000798,421.374748 444.415806,427.198422 C443.745968,433.874449 447.537251,440.456762 447.175538,445.414694 C446.670927,452.425415 445.469684,459.520925 444.683741,466.522721 C443.897798,473.502204 441.834696,480.423673 440.803146,487.403156 C439.776061,494.346939 434.877312,500.679347 433.635879,507.627592 C431.854109,517.614857 438.36047,523.295728 444.875761,526.316898 C451.364259,529.333605 458.169814,527.396844 465.430858,523.518857 C471.816648,520.109442 481.082741,517.132898 482.641231,508.404082 C483.829077,501.763755 481.774907,494.578993 482.757336,487.934204 C483.744231,481.262639 480.761219,474.167129 481.5293,467.500027 C482.301846,460.801687 488.066919,454.665633 488.602789,447.971755 C489.13866,441.251102 490.88917,434.56615 491.174968,427.858884 C491.460765,421.124844 488.174093,414.310476 488.191955,407.589823 C488.205352,401.761687 488.714429,395.219537 488.250008,388.521197 C487.803449,382.112925 491.99217,374.414966 490.362231,368.430639 C488.584927,361.92419 479.863636,358.813769 475.786555,354.288707 C471.749664,349.812735 467.91819,346.871891 460.706267,345.845497 L460.706267,345.845497 Z M514.364761,356.408435 C513.498437,363.454857 511.515717,370.362939 510.649393,377.409361 C509.783069,384.455782 507.911988,391.381714 507.045664,398.428136 C506.17934,405.474558 505.951595,412.596844 505.085271,419.643265 C504.218947,426.689687 508.791709,434.405497 507.925385,441.451918 C507.059061,448.49834 502.227296,455.05834 501.360972,462.104762 C500.499113,469.151184 500.083814,476.251156 499.221955,483.297578 C498.355632,490.344 497.739381,497.42166 496.873057,504.468082 C496.006733,511.514503 490.844514,518.03434 489.97819,525.080762 C489.111866,532.127184 493.55066,539.825143 492.688802,546.871565 C491.483093,556.666939 493.224672,566.158857 499.686377,569.278204 C506.282049,572.460027 517.312049,570.429551 524.43466,566.654204 C530.802587,563.276027 535.888891,555.774422 536.987425,546.826939 C537.853749,539.780517 533.745409,532.122721 534.611733,525.076299 C535.478057,518.029878 544.02519,511.929524 544.891514,504.883102 C545.757838,497.83668 539.83647,489.955755 540.702794,482.909333 C541.569117,475.862912 544.949567,469.124408 545.815891,462.077986 C546.682215,455.031565 549.174012,448.185959 550.03587,441.139537 C550.902194,434.093116 550.254684,426.859265 551.121008,419.812844 C551.987332,412.766422 550.692312,405.456707 551.558636,398.410286 C552.420494,391.359401 559.328757,385.058231 560.195081,378.01181 C561.061405,370.965388 558.029271,363.437007 558.895595,356.390585 C560.096838,346.595211 554.97481,343.15902 548.50864,340.044136 C541.917433,336.862313 536.085377,337.018503 528.962765,340.789388 C522.594838,344.167565 515.463296,347.460952 514.364761,356.408435 L514.364761,356.408435 Z M656.732142,284.891048 C648.752138,284.926748 640.718547,285.774639 632.725146,285.966531 C624.745142,286.158422 616.751741,287.430259 608.762806,287.77834 C600.791733,288.126422 593.01268,292.258776 585.028211,292.758585 C576.239935,293.311946 572.890745,298.260952 568.737749,304.263129 C564.062279,311.028408 561.561551,316.535238 563.673773,323.345143 C565.817255,330.26215 569.340603,337.018503 579.481951,336.384816 C580.129462,336.34019 582.411377,335.416435 583.058887,335.376272 C582.20596,342.311129 580.558158,349.308463 579.705231,356.24332 C578.852304,363.178177 576.592717,369.938993 575.744255,376.87385 C574.891328,383.808707 573.873174,390.721252 573.020247,397.656109 C572.16732,404.590966 575.846964,412.083646 574.994036,419.018503 C574.145575,425.948898 572.484377,432.785578 571.631449,439.720435 C570.782988,446.655293 564.571356,452.93415 563.718429,459.869007 C562.865502,466.803864 561.905401,473.725333 561.052474,480.66019 C560.199547,487.595048 558.069462,494.369252 557.216534,501.304109 C556.363607,508.238966 558.373121,515.526367 557.52466,522.461224 C556.671733,529.396082 560.369239,536.888762 559.516312,543.823619 C558.315069,553.618993 557.328174,563.075211 563.789879,566.194558 C570.385551,569.376381 582.313134,568.497252 589.435745,564.721905 C595.803672,561.34819 595.736688,551.86966 596.835223,542.922177 C597.692615,535.924844 602.685142,529.431782 603.547,522.434449 C604.404393,515.437116 604.596413,508.354993 605.458271,501.35766 C606.315664,494.355864 611.620781,487.902966 612.48264,480.905633 C613.340032,473.908299 611.241206,466.545034 612.098599,459.547701 C612.960457,452.550367 615.702328,445.780626 616.564186,438.783293 C617.421579,431.785959 618.783583,424.846639 619.645441,417.849306 C620.502834,410.851973 617.743101,403.408381 618.600494,396.411048 C619.462352,389.409252 617.443907,382.059374 618.305765,375.062041 C619.167623,368.060245 621.797854,361.281578 622.659713,354.284245 C623.521571,347.282449 624.414688,339.165007 625.276547,332.163211 C633.618263,331.957932 642.920081,329.90068 651.252866,329.860517 C660.2153,329.820354 665.538279,327.642612 669.651085,321.658286 C674.210449,315.022422 680.506927,306.199891 678.233943,299.265034 C675.978822,292.392653 666.601089,284.846422 656.732142,284.891048 L656.732142,284.891048 Z M719.835352,370.719946 C718.919907,377.614639 717.200656,384.437932 716.249486,391.350476 C715.298316,398.24517 712.618964,404.952435 711.511498,411.842667 C710.408498,418.710585 704.768462,424.757388 703.388595,431.602993 C702.01766,438.412898 706.023291,446.503565 704.254919,453.268844 C703.468976,456.276626 695.806028,461.506776 693.341024,469.717932 C691.661964,475.314014 690.03649,481.41883 687.705453,487.416544 C685.311899,493.583837 682.748652,499.054966 679.783502,503.901333 C675.594781,510.733551 673.281607,515.94585 668.231028,515.91015 C666.68147,515.901224 670.102109,508.631673 671.075607,495.770503 C671.553425,489.491646 665.243551,481.512544 666.083081,473.573605 C666.806506,466.74585 675.103567,460.315265 675.983287,452.898449 C676.831749,445.780626 674.152397,438.100517 675.058911,430.964844 C675.992219,423.579265 680.252389,416.755973 681.154437,409.910367 C682.194919,402.06068 683.704287,394.84468 684.56168,388.521197 C685.999599,377.92702 684.892134,369.773878 685.271709,366.734857 C686.495279,356.93502 681.864466,346.733551 675.398296,343.618667 C668.811555,340.445769 657.946781,343.408925 650.819704,347.188735 C644.451777,350.566912 636.815623,357.184925 635.703692,366.123483 C634.77485,373.584925 639.325283,381.769306 638.324992,389.253061 C637.329166,396.714503 635.520603,404.077769 634.502449,411.548136 C633.488761,419.018503 632.041911,426.421932 631.059482,433.892299 C630.077053,441.371592 629.6037,448.891048 628.701652,456.365878 C627.795138,463.858558 621.989874,470.806803 621.217328,478.286095 C620.444781,485.796626 619.618648,493.369633 619.02919,500.862313 C618.466526,508.033687 617.287611,516.057415 617.99764,523.014585 C618.765721,530.529578 624.687089,537.259156 627.652239,543.305959 C630.867462,549.861497 634.533709,557.581769 641.232089,560.857306 C646.778348,563.566095 655.120065,565.94019 663.635939,565.391293 C671.035417,564.913796 678.818935,562.74498 685.070757,560.192381 C691.608377,557.519293 697.927182,552.717551 703.330543,548.161252 C708.564211,543.747755 712.636826,537.343946 716.914858,531.524735 C720.951749,526.040218 727.283951,521.176 730.570623,514.749878 C733.692069,508.645061 733.111543,500.42498 735.634599,493.731102 C738.081741,487.246966 741.966802,481.017197 743.927194,474.22068 C745.869725,467.486639 746.200178,460.212626 747.731874,453.393796 C749.29483,446.458939 751.523158,439.662422 752.742263,432.87483 C754.014955,425.757007 753.697899,418.532082 754.671397,411.842667 C755.743138,404.483864 758.717219,397.72751 759.534421,391.229986 C760.521316,383.424925 757.917879,375.932245 758.712753,369.952381 C760.02117,360.116844 758.404628,350.955156 751.933992,347.85366 C745.360648,344.703075 736.005243,349.335238 728.860304,353.132898 C722.492377,356.515537 721.018733,361.808163 719.835352,370.719946 L719.835352,370.719946 Z" id="Stroke-5" stroke="#231F1F" stroke-width="12" sketch:type="MSShapeGroup"></path>
                <path d="M942.391279,465.607891 C936.912004,473.44419 928.82036,477.357878 922.550676,480.222857 C914.816279,483.752762 905.487668,487.496871 897.771134,485.394993 C890.277879,483.355592 886.82598,472.150041 880.614348,466.794939 C874.407182,461.448762 868.878785,456.691646 865.190211,450.011156 C862.3367,444.843483 858.880336,439.867701 855.915186,434.829442 C852.838397,429.59483 844.367178,425.029605 840.678603,420.696435 C845.916737,415.71619 854.83898,411.177741 859.867231,405.648599 C864.828498,400.190857 870.414947,395.08566 874.84481,389.244136 C879.381846,383.25981 885.767636,378.230476 889.393692,372.00517 C893.234097,365.409469 890.112652,355.730122 892.519603,349.049633 C895.12304,341.820245 901.455243,335.818068 901.870543,328.72702 C902.379619,319.984816 895.658911,315.133986 892.019457,309.671782 C888.040619,303.691918 884.057316,300.327129 876.693563,297.466612 C870.289911,294.97649 863.939846,292.209687 856.151862,291.477823 C848.993526,290.808435 841.728016,290.79951 834.283883,291.16098 C826.719178,291.535837 818.569482,286.577905 811.580838,287.568599 C803.395417,288.733333 796.647915,294.931864 790.570251,296.279565 C780.187761,298.577796 774.413757,304.901279 772.614126,312.68849 C770.586749,321.470857 770.528696,332.716571 777.731688,337.589714 C777.169024,344.926204 783.005547,351.044408 782.259794,358.376435 C781.522972,365.699537 773.511709,372.201524 772.591798,379.520163 C771.671887,386.81649 773.234842,394.41181 772.136308,401.703673 C771.037773,408.973224 773.659073,416.885388 772.377449,424.150476 C771.100291,431.393252 764.857401,437.716735 763.392688,444.950585 C761.936907,452.15766 762.879146,459.869007 761.23581,467.067156 C759.596939,474.234068 756.02447,480.932408 754.198045,488.085932 C752.380551,495.208218 754.099802,503.30781 752.094753,510.412245 C749.535972,519.462367 749.250174,526.910422 754.189113,531.823728 C759.641595,537.254694 768.184263,536.955701 775.659656,535.233143 C782.416089,533.675701 791.570543,531.520272 794.147186,522.403211 C796.339789,514.651701 798.233198,506.775238 800.22485,499.01034 C802.229899,491.214204 798.268923,481.990041 800.077486,474.180517 C801.89498,466.339755 804.641316,457.450286 806.271255,449.596136 C809.24087,451.434721 816.604623,462.185088 821.378336,471.217361 C826.192239,480.316571 830.671223,489.647837 832.466389,492.133497 C836.146032,497.243156 838.110891,504.575184 842.835482,508.783401 C847.528814,512.964844 856.585024,511.286912 862.131283,514.366095 C867.601628,517.405116 872.080611,522.148844 878.216328,523.902639 C885.423785,525.964354 892.747348,530.110095 900.182551,530.114558 C907.595425,530.11902 915.343219,527.521796 922.599798,525.61181 C929.73134,523.733061 937.697947,522.175619 944.311482,518.56985 C950.764255,515.053333 956.672227,509.550966 962.294401,504.503782 C967.742417,499.612789 973.226158,493.927456 977.57564,487.706612 C983.211211,479.647184 984.7697,469.137796 981.697377,463.104381 C978.227615,456.298939 967.599518,457.740354 959.601652,457.633252 C952.764838,457.544 947.821433,457.838531 942.391279,465.607891 L942.391279,465.607891 Z M847.828008,353.405116 C844.143899,359.460844 838.204668,364.106395 833.96236,369.653388 C829.679862,375.245007 822.007984,383.362449 817.203012,388.489959 C818.341737,380.028898 826.138652,368.948299 827.036235,360.47385 C827.933818,351.990476 827.063028,344.372844 827.715004,335.876082 C831.876931,335.661878 833.605113,336.228626 837.780437,336.398204 C848.631814,336.835537 856.888684,334.550694 856.888684,337.406748 C856.888684,339.660354 852.771413,345.287673 847.828008,353.405116 L847.828008,353.405116 Z M1041.88009,411.432109 C1037.34752,406.49649 1034.05192,401.00751 1027.68399,398.017578 C1021.78495,395.246313 1016.14045,389.859973 1009.16967,388.503347 C1002.69457,387.235973 995.30402,391.283537 988.315377,391.033633 C981.594668,390.78819 974.708733,387.307374 967.867453,387.820571 C961.021709,388.333769 954.765421,389.828735 948.147421,390.926531 C949.290611,386.405932 949.536219,381.854095 950.540976,377.329034 C959.851725,376.619483 969.533117,375.102204 978.799211,375.16468 C987.788437,375.222694 991.365372,370.666395 995.469247,364.677605 C1000.00182,358.068517 1005.41857,351.267537 1003.1188,344.310367 C1000.85028,337.442449 994.067053,334.394503 984.256158,334.332027 C975.71349,334.274014 965.871336,334.952327 957.292943,335.550313 C957.909194,330.355864 961.579907,325.469333 962.008603,320.261497 C968.796296,320.261497 973.730769,320.622966 980.522927,320.622966 C987.310619,320.622966 994.098312,313.808599 1000.886,313.808599 C1007.6737,313.808599 1014.46139,320.56049 1021.24908,320.56049 C1030.22491,320.56049 1036.75806,313.224 1040.8664,307.239673 C1045.41237,300.612735 1044.22453,293.004027 1041.93815,286.060245 C1039.67856,279.192327 1036.57498,276.496925 1026.73282,276.496925 C1020.06123,276.496925 1013.39411,268.611537 1006.72253,268.611537 C1000.0554,268.611537 993.383818,273.877388 986.716696,273.877388 C980.045109,273.877388 973.377988,274.76098 966.706401,274.76098 C960.039279,274.76098 953.367692,269.700408 946.696105,269.700408 C935.782211,269.700408 925.104992,277.309116 921.492332,285.297143 C916.924036,288.862748 918.433405,296.605333 918.067227,303.990912 C917.687652,311.684408 915.177992,319.239565 914.392049,326.883973 C913.606105,334.528381 916.874915,342.810939 915.669206,350.419646 C914.467964,357.992653 912.293223,365.610286 910.663283,373.156517 C909.042275,380.631347 905.568049,387.838422 903.513879,395.295401 C901.482036,402.658667 897.516595,409.526585 895.047126,416.876463 C892.666968,423.963048 894.680947,429.49219 897.48087,434.133279 C900.660368,439.403592 905.965486,439.742748 912.114599,440.791456 C918.044899,441.804463 924.399429,445.521796 929.49913,441.572408 C936.76464,439.613333 943.677368,434.195755 951.688632,433.039946 C959.561462,431.901986 967.92104,429.389551 975.610781,429.367238 C984.001619,429.344925 991.959296,434.731265 999.005992,436.462748 C1005.75349,438.118367 1009.37062,443.031673 1011.33548,449.25698 C1013.14404,454.986939 1009.91096,460.364354 1007.9193,466.665524 C1005.9991,472.748027 1007.83892,481.891864 1002.60972,485.61366 C994.437696,491.428408 991.365372,496.198912 992.633599,502.758912 C994.040259,510.010612 997.952113,519.823837 1005.7401,522.220245 C1012.28218,524.232871 1019.47178,517.864762 1026.99183,512.514122 C1032.31034,508.725388 1035.59255,504.128925 1039.51333,498.764898 C1043.34034,493.534748 1047.02891,488.907048 1049.48499,482.735293 C1051.9098,476.648327 1058.23307,471.565442 1059.28695,465.099156 C1060.35423,458.516844 1062.07794,451.323156 1061.68497,444.905959 C1061.27414,438.118367 1058.76001,431.018395 1056.66565,425.056381 C1054.4016,418.59902 1046.17599,416.108898 1041.88009,411.432109 L1041.88009,411.432109 Z" id="Stroke-6" stroke="#231F1F" stroke-width="12" sketch:type="MSShapeGroup"></path>
                <path d="M128.229915,96.851102 C127.819081,98.185415 124.19749,99.3010612 123.996538,100.791565 C123.121283,107.213224 127.4663,114.344435 126.591045,120.770558 C125.715789,127.192218 123.759862,133.466612 122.880142,139.888272 C122.004887,146.309932 117.655405,152.26302 116.78015,158.68468 C115.900429,165.10634 113.649773,171.340571 112.770053,177.762231 C111.894798,184.183891 113.989158,190.319946 113.109437,196.741605 C105.303591,200.378612 101.64181,208.02302 100.69064,215.167619 C99.6635547,222.941442 104.723065,230.255619 110.69802,234.829769 C109.804903,241.362993 107.871304,248.842286 106.978186,255.37551 C106.085069,261.904272 102.048178,268.009088 101.155061,274.542313 C100.261943,281.075537 104.187194,288.264762 103.294077,294.797986 C102.405425,301.331211 95.1845709,307.003156 94.295919,313.536381 C92.9562429,323.380844 99.8823684,333.091429 106.35747,336.192925 C112.926348,339.334585 123.710741,337.692354 130.864611,333.890231 C137.237004,330.503129 138.19264,322.497252 139.402814,313.598857 C140.353984,306.605986 140.644247,299.523864 141.595417,292.530993 C142.551053,285.542585 151.084789,279.585034 152.040425,272.592163 C152.996061,265.599293 146.422717,257.580027 147.378352,250.591619 C148.333988,243.598748 155.197595,238.658667 156.153231,231.665796 C162.80249,229.122122 166.651826,223.044082 173.082271,219.799782 C179.476992,216.577796 185.46981,212.998803 191.493887,209.116354 C197.535826,205.220517 201.666494,199.312054 207.181494,194.782531 C212.750081,190.208381 222.913757,190.685878 227.790178,185.495891 C232.724652,180.238966 234.314401,172.112599 238.373619,166.257687 C242.473028,160.35815 244.969291,153.820463 248.010356,147.340789 C251.038024,140.887891 252.784069,134.37698 254.597097,127.384109 C256.369935,120.565279 262.970073,114.366748 263.434494,107.061497 C263.858725,100.363156 260.049579,93.5621769 258.9957,87.0601905 C257.910563,80.3261497 253.395854,75.3503673 250.564672,69.4731429 C247.635247,63.3861769 244.643304,59.0440816 239.664174,54.5993469 C234.890462,50.3331156 231.094713,45.8392925 224.284692,43.7418776 C217.742607,41.7337143 211.120142,43.0769524 204.033255,42.6931701 C197.232166,42.3272381 190.350696,37.6325986 183.308466,38.467102 C176.489514,39.2748299 169.554457,40.8322721 162.739972,42.4923537 C155.970142,44.1435102 148.436696,43.9471565 141.903543,46.178449 C135.182834,48.4722177 131.27098,57.7677823 125.041486,60.3962449 C118.057308,63.341551 112.645016,64.256381 110.903437,69.3838912 C108.880526,75.3414422 107.808785,83.0572517 111.162441,88.3409524 C114.395526,93.4282993 121.674433,95.9273469 128.229915,96.851102 L128.229915,96.851102 Z M204.528935,84.0122449 C213.107328,87.3636463 212.830462,95.4141497 212.968895,104.258993 C213.093931,112.380898 215.911717,122.011156 213.19664,129.115592 C210.142178,137.103619 204.90851,144.127728 200.014227,150.580626 C194.98151,157.212027 186.760364,160.487565 180.276332,165.637388 C173.823559,170.760435 169.978688,173.580789 162.579211,177.373986 C163.49019,170.729197 164.05732,167.882068 164.963834,161.232816 C165.874814,154.583565 165.995385,147.827211 166.901899,141.182422 C167.812879,134.53317 166.258854,127.549224 167.165368,120.899973 C168.071883,114.255184 170.17964,107.771048 171.081688,101.121796 C171.992668,94.4368435 173.122462,90.5945578 169.898308,87.0200272 C176.025093,85.3867211 179.986069,80.4912653 185.876178,79.9557551 C192.77551,79.3309932 199.451563,82.0308571 204.528935,84.0122449 L204.528935,84.0122449 Z" id="Fill-7" fill="#FFFFFF" sketch:type="MSShapeGroup"></path>
                <path d="M285.239955,149.478367 C291.371206,149.505143 297.497992,146.747265 303.638174,146.72049 C309.773891,146.693714 319.200745,146.934694 325.336462,146.912381 C325.340927,154.244408 319.312385,164.352163 319.3883,171.670803 C319.464215,179.00283 320.299279,186.343782 320.451109,193.662422 C320.607405,200.994449 320.527024,208.348789 320.754769,215.662966 C320.98698,222.990531 326.953004,230.099429 327.26113,237.413605 C327.569255,244.736707 322.822336,252.291864 323.210842,259.601578 C323.603814,266.920218 329.909223,273.872925 330.382575,281.178177 C330.855927,288.492354 326.104543,296.154612 326.662741,303.455401 C327.426356,313.406966 335.200943,313.964789 342.618283,314.955483 C349.700704,315.901551 357.095717,317.128762 363.231433,311.787048 C368.844676,306.900517 368.87147,300.496707 368.206097,291.821442 C367.688089,285.065088 375.351036,277.719673 374.900012,270.954395 C374.453453,264.193578 367.250462,257.847782 366.875352,251.073578 C366.495777,244.308299 372.461802,237.226177 372.153676,230.44751 C371.850016,223.682231 368.139113,217.064218 367.902437,210.281088 C367.670227,203.511347 371.425785,196.643429 371.26949,189.864762 C371.108729,183.090558 366.535968,176.410068 366.455587,169.626939 C366.370741,162.852735 368.134648,157.63151 368.125717,150.848381 C375.79313,150.741279 382.03602,148.197605 389.703433,148.072653 C397.370846,147.947701 405.145433,152.651265 412.817312,152.463837 C421.726158,152.24517 431.362895,145.939537 435.489097,139.946286 C440.097583,133.265796 440.865664,121.774639 438.646267,114.884408 C436.42687,107.998639 428.214656,105.414803 418.247466,105.660245 C411.160579,105.834286 404.118348,108.458286 397.040393,108.596626 C389.957972,108.739429 382.737117,101.117333 375.659162,101.219973 C368.572275,101.327075 361.516648,102.25083 354.434227,102.322231 C347.351806,102.393633 340.287247,103.500354 333.204826,103.536054 C326.122405,103.571755 319.044449,102.116952 311.966494,102.116952 C304.884073,102.121415 297.815049,102.161578 290.737093,102.13034 C281.747866,102.090177 272.173648,107.485442 268.069773,113.474231 C263.537202,120.087782 262.702138,131.431673 264.997449,138.384381 C267.261502,145.252299 275.42013,149.433741 285.239955,149.478367" id="Fill-8" fill="#FFFFFF" sketch:type="MSShapeGroup"></path>
                <path d="M391.735275,185.812735 C392.244352,192.403973 392.038935,199.088925 392.463166,205.693551 C392.887397,212.289252 391.949623,218.983129 392.347061,225.583293 C392.748964,232.183456 395.709648,238.605116 396.151741,245.196354 C396.593834,251.80098 389.078251,258.994667 389.627518,265.57698 C390.176785,272.17268 390.940401,278.844245 391.65936,285.404245 C392.382785,291.986558 399.460741,297.770068 400.420842,304.303293 C401.823036,313.848762 405.011466,323.139864 412.38415,324.268898 C419.631798,325.380082 429.473951,319.784 435.493563,314.589551 C441.106806,309.747646 447.501526,301.045605 446.210972,292.24985 C445.25087,285.716626 440.620057,279.705524 439.896632,273.123211 C439.177672,266.563211 441.191652,259.753306 440.642385,253.157605 C440.093117,246.575293 440.035065,239.99298 439.588506,233.392816 C439.150879,226.801578 438.829356,220.214803 438.431919,213.610177 C438.030016,207.014476 432.336393,200.744544 431.912162,194.144381 C431.487931,187.544218 430.974389,180.984218 430.460846,174.397442 C429.692765,164.454803 426.383765,156.44 418.966425,155.444844 C411.879538,154.498776 405.538405,162.767946 399.402688,168.10966 C393.789445,172.99619 391.060972,177.137469 391.735275,185.812735" id="Fill-9" fill="#FFFFFF" sketch:type="MSShapeGroup"></path>
                <path d="M558.761628,218.902803 C559.627951,211.825143 563.298664,204.796571 563.307595,197.812626 C563.320992,190.645714 561.266822,183.380626 560.248668,176.494857 C559.199255,169.408272 552.554462,163.999619 550.272547,157.408381 C547.950441,150.696653 545.80696,144.810503 542.046935,138.826177 C538.344964,132.931102 534.433109,128.115973 529.19051,123.131265 C524.832097,118.985524 523.112846,113.121687 517.941696,113.273415 C513.203709,107.025796 503.218656,105.861061 494.73404,107.503293 C487.455134,108.917932 481.806166,114.228408 478.072935,123.247293 C475.473964,129.52615 467.440372,133.886095 465.046818,140.41932 C462.684522,146.863293 460.76432,153.766912 458.768202,160.367075 C456.767619,166.989551 460.661611,175.231946 459.187968,181.921361 C457.696462,188.713415 452.936146,194.920871 452.163599,201.695075 C451.368725,208.621007 454.950126,215.671891 455.093024,222.477333 C455.235923,229.430041 457.19185,235.65981 458.509198,242.376 C459.723838,248.578993 460.063223,256.067211 463.131081,263.635755 C465.868486,270.378721 468.730927,277.144 472.933045,283.190803 C477.353976,289.558912 480.524543,297.475537 486.557551,301.13932 C492.809372,304.93698 501.619976,309.243374 509.586583,307.971537 C516.856559,306.811265 523.684441,301.058993 529.065474,296.649959 C534.312538,292.35249 535.46466,284.087782 539.175563,277.831238 C542.676583,271.927238 551.281769,267.910912 553.639599,261.230422 C556.028688,254.474068 558.033737,247.092952 559.476121,240.501714 C561.132854,232.919782 558.033737,224.882667 558.761628,218.902803 L558.761628,218.902803 Z M512.310591,234.392435 C511.368352,238.863946 508.470186,241.367456 508.032559,245.789878 C505.143324,241.389769 503.053429,239.49317 501.673563,234.303184 C499.06566,224.50781 493.680162,214.248327 494.61347,203.783565 C495.18953,197.308354 496.873057,190.453823 498.297579,184.000925 C499.699773,177.655129 504.361846,168.658558 506.353498,162.375238 C509.64017,168.011483 510.394854,177.963048 511.859567,184.49181 C513.234968,190.632327 515.883061,196.710367 515.753559,203.587211 C515.566004,213.681578 514.445142,224.289143 512.310591,234.392435 L512.310591,234.392435 Z" id="Fill-10" fill="#FFFFFF" sketch:type="MSShapeGroup"></path>
                <path d="M190.877636,424.431619 C183.00034,424.431619 175.12751,421.379211 167.250215,421.379211 C159.372919,421.379211 151.500089,422.231565 143.622794,422.231565 C135.749964,422.231565 125.224575,426.261279 117.347279,426.261279 C119.048668,418.001034 121.692296,405.844952 123.349028,397.584707 C131.337964,397.584707 140.965769,396.51815 148.954704,396.51815 C156.939174,396.51815 164.928109,398.352272 172.912579,398.352272 C180.901514,398.352272 188.885984,395.148136 196.874919,395.148136 C204.859389,395.148136 212.848324,395.929088 220.832794,395.929088 C229.808623,395.929088 233.457008,393.046259 237.565348,387.061932 C242.115781,380.434993 249.314308,372.995864 247.027927,366.052082 C244.76834,359.179701 236.163154,353.195374 226.316534,353.195374 C218.555344,353.195374 210.794154,354.119129 203.032964,354.119129 C195.271773,354.119129 187.510583,354.31102 179.749393,354.31102 C171.992668,354.31102 164.231478,357.939102 156.470287,357.939102 C148.709097,357.939102 140.947907,357.858776 133.186717,357.858776 C125.425526,357.858776 117.664336,357.046585 109.903146,357.046585 C99.422413,357.046585 88.5487085,358.965497 84.779753,366.507265 C83.1989352,369.068789 86.5391943,374.053497 85.882753,377.39151 C84.520749,384.321905 82.4576478,391.113959 81.0688502,398.044354 C79.6800526,404.965823 75.2323279,411.271456 73.8167368,418.192925 C72.4011457,425.109932 71.9903117,432.232218 70.5523927,439.149224 C69.1100081,446.061769 69.4493927,453.344707 67.9802146,460.257252 C66.515502,467.165333 67.9400243,474.698177 66.4440526,481.601796 C64.9525466,488.505415 58.5667571,494.346939 57.0439919,501.246095 C55.5256923,508.145252 56.383085,515.566531 54.8335263,522.461224 C53.2884332,529.355918 48.0145749,535.398259 46.4426883,542.28849 C44.8708016,549.174259 48.2691134,557.202449 46.6704332,564.083755 C45.0762186,570.965061 41.9592389,577.498286 40.3337652,584.375129 C37.9446761,594.505197 42.5397652,599.132898 49.1354372,602.033578 C55.5256923,604.845007 64.7337328,608.473088 72.1198138,604.546014 C78.5457935,601.127673 81.1313684,592.407782 83.1319514,583.933333 C84.6413198,577.538449 89.5400688,571.933442 91.0271093,565.534095 C92.5141498,559.130286 94.6174413,552.864816 96.0776883,546.461007 C97.5379352,540.052735 93.0321579,532.301224 94.4700769,525.88849 C95.907996,519.475755 98.9267328,513.42449 100.346789,507.011755 C101.762381,500.594558 101.731121,493.869442 103.124385,487.447782 C104.522113,481.026122 110.139822,476.692952 111.515223,470.271293 C119.821215,470.271293 127.229623,467.90166 135.540081,467.90166 C143.846073,467.90166 152.15653,464.452082 160.466988,464.452082 C168.777445,464.452082 177.083437,467.321524 185.393895,467.321524 C194.365259,467.321524 202.729304,465.683755 206.837644,459.699429 C211.383611,453.07249 209.43215,443.861714 207.145769,436.922395 C204.886182,430.050014 200.719789,424.431619 190.877636,424.431619" id="Fill-11" fill="#FFFFFF" sketch:type="MSShapeGroup"></path>
                <path d="M234.720769,502.424218 C236.221206,496.466667 232.965794,488.389388 229.098595,484.310585 C225.191206,480.196082 217.644364,482.940571 212.138296,482.940571 C205.466709,482.940571 198.308372,480.218395 194.092858,484.288272 C189.863947,488.367075 190.122951,496.051646 188.604652,502.058286 C186.211097,511.554667 186.130717,521.180463 185.451947,530.685769 C185.063441,536.139048 185.724348,541.837769 184.965198,547.299973 C184.884818,547.875646 184.706194,551.717932 184.357879,553.203973 C181.825891,554.221442 176.03849,549.080544 174.028976,549.294748 C168.639012,549.865959 166.357097,552.039238 161.980822,548.495946 C164.655709,550.660299 160.283899,550.566585 159.859668,545.956735 C159.515818,542.203701 159.060328,538.459592 159.457765,534.612844 C160.038291,528.994449 167.339526,524.161469 168.089745,518.529687 C168.835498,512.911293 169.523198,507.252735 170.233227,501.638803 C171.47466,491.830041 161.565522,487.987755 155.099352,484.877333 C148.517077,481.704435 141.23817,478.790367 134.106628,482.574639 C127.7387,485.952816 125.49251,492.55298 124.358251,501.482612 C123.572308,507.681143 122.411255,514.620463 121.303789,521.707048 C120.267773,528.351837 112.051093,534.510204 111.667053,541.230857 C111.260684,548.268354 119.312138,554.703401 120.633951,561.049197 C122.054008,567.868027 123.402615,572.892898 128.055757,577.97132 C133.744915,584.187701 137.174486,593.389551 144.413202,596.23668 C151.709972,599.110585 160.717061,595.638694 168.982862,595.397714 C176.614551,595.170122 184.223911,594.451646 192.181587,591.823184 C200.054417,589.221497 209.257992,589.91766 213.92453,585.736218 C219.528842,580.71581 220.189749,571.527347 222.592235,564.900408 C224.941134,558.416272 223.177227,551.084245 223.931911,543.765605 C224.65087,536.786122 228.777073,529.96283 229.339737,522.836082 C229.906866,515.620082 233.014915,509.180571 234.720769,502.424218" id="Fill-12" fill="#FFFFFF" sketch:type="MSShapeGroup"></path>
                <path d="M443.187769,539.976871 C434.506668,540.396354 426.950895,539.115592 419.587142,537.825905 C411.307943,536.380027 405.207951,532.162884 398.179117,528.757932 C391.029713,525.299429 384.058931,522.840544 377.73566,517.579156 C371.832154,512.661388 364.383555,509.046694 358.806036,502.745524 C352.402385,495.507211 346.222012,489.518422 338.893984,485.381605 C342.475385,482.521088 344.212498,478.330721 347.365202,474.782966 C351.71915,469.88751 359.627704,467.459864 362.570526,461.97981 C365.616057,456.307864 363.606543,448.413551 365.352587,442.353361 C367.12096,436.212844 368.313271,430.210667 368.974178,423.913959 C369.644016,417.536925 370.693429,411.316082 370.461219,405.028299 C370.211146,398.24517 373.752356,390.123265 372.265316,383.027755 C370.764879,375.865306 366.330551,368.751946 362.700028,362.910422 C358.94447,356.868082 351.866514,353.896 344.882336,351.053333 C339.13066,348.714939 332.838648,343.368762 326.100077,343.806095 C319.959895,344.207728 316.883105,346.077551 310.541972,348.023238 C311.323449,340.695673 304.82602,336.094748 305.603032,328.771646 C306.380045,321.444082 307.782239,314.250395 308.563717,306.927293 C308.974551,300.724299 315.364806,293.584163 315.829227,285.261442 C316.222198,278.277497 310.010567,270.642014 310.028429,262.98868 C310.046291,255.638803 313.703607,248.195211 313.033769,240.903347 C312.332672,233.285714 311.993287,225.730558 310.171328,218.929578 C308.112692,211.271782 307.55896,202.51619 303.566725,196.924571 C299.194915,190.797442 290.152101,190.056653 282.770486,187.776272 C276.670494,185.888599 269.851543,182.943293 261.255287,184.572136 C254.829308,185.790422 249.617968,191.489143 243.147332,194.238095 C236.980356,196.857633 229.228097,196.545252 223.503215,200.338449 C217.80066,204.118259 214.201397,210.437279 209.405356,215.167619 C204.457486,220.045224 201.420887,225.654694 197.942194,231.317714 C193.673093,238.279347 191.645717,244.848272 189.546891,252.135673 C187.381081,259.681905 180.539802,266.116952 179.633287,273.855075 C178.731239,281.59766 182.446607,289.840054 181.723182,297.609415 C181.004223,305.378776 180.271866,313.415891 178.650858,321.046912 C176.502911,331.127891 177.476409,338.924027 184.031891,341.878259 C190.462336,344.774476 201.979085,346.157878 209.32051,342.24419 C215.728628,338.82585 215.228482,328.298612 217.054907,319.717061 C218.363324,313.567619 224.87415,309.457578 225.343036,302.491483 C232.800567,300.559184 237.962785,295.721741 245.447109,294.115211 C252.976089,292.499755 259.553899,294.467755 267.114138,293.249469 C266.890858,298.626884 271.445757,302.161252 271.08851,307.56098 C270.307032,314.901932 267.158794,322.046531 266.377316,329.387483 C265.600304,336.723973 262.027834,343.765932 261.250822,351.102422 C260.469344,358.438912 262.487789,366.074395 261.706312,373.415347 C260.9293,380.751837 256.745045,387.726857 255.968032,395.06781 C255.186555,402.404299 259.044822,410.236136 258.26781,417.572626 C257.486332,424.909116 256.387798,432.214367 255.60632,439.550857 C254.829308,446.89181 254.177332,454.241687 253.395854,461.578177 C252.618842,468.919129 246.175,475.65317 245.393522,482.994122 C244.612045,490.330612 248.91687,498.207075 248.135393,505.543565 C247.353915,512.884517 245.661457,520.12283 244.884445,527.463782 C244.102968,534.800272 240.079474,541.793143 239.297996,549.129633 C238.516518,556.470585 242.289939,564.289034 241.508462,571.625524 C240.472445,581.353959 244.053846,585.053442 250.511085,588.195102 C257.133551,591.417088 265.984344,596.241143 273.0623,592.505959 C279.430227,589.145633 280.689522,580.153524 281.645158,571.148027 C282.565069,562.481687 282.53381,553.712707 283.458186,545.041905 C284.378097,536.375565 291.339947,530.257361 292.259858,521.59102 C298.467024,521.604408 302.535174,517.213224 307.929603,519.109823 C313.082891,520.926095 315.646138,527.981442 320.281417,532.70732 C325.265012,537.790204 329.248316,543.546939 333.995235,548.674449 C338.724291,553.775184 345.587899,556.863293 351.335109,561.200925 C357.435101,565.806313 364.964081,567.649361 371.885741,570.942748 C378.735951,574.200435 384.626061,579.979483 392.070194,581.983184 C399.38036,583.942259 406.976324,586.369905 414.657134,587.141932 C422.190579,587.896109 430.219704,589.462476 437.922842,589.092082 C446.760239,588.663673 454.575016,581.702041 458.714615,575.704327 C463.367757,568.974748 466.908968,558.385034 464.756555,551.543891 C462.581814,544.640272 453.266599,539.490449 443.187769,539.976871 L443.187769,539.976871 Z M232.479045,253.760054 C236.573988,245.325769 242.758826,240.28751 253.252955,235.561633 C264.349939,230.568 259.509243,230.224381 262.804846,239.158476 C263.71136,241.626286 266.591664,241.813714 266.783684,245.343619 C260.634571,246.29415 255.923377,249.614313 249.796591,250.770122 C243.687668,251.925932 238.574571,252.385578 232.479045,253.760054 L232.479045,253.760054 Z M296.180644,460.301878 C296.921931,453.326857 299.194915,447.601361 299.931737,440.62634 C300.673024,433.655782 303.526534,426.903891 304.267822,419.933333 C305.009109,412.958313 303.522069,406.817796 304.263356,399.847238 C310.8367,396.241469 316.226664,391.096109 320.308211,391.390639 C323.929802,391.653932 324.045907,397.553469 324.94349,403.064762 C325.93485,409.116027 328.399854,415.368109 327.980089,421.651429 C327.265595,432.33932 319.723219,438.12283 314.860194,444.272272 C309.537215,451.00185 305.0493,456.580082 296.180644,460.301878 L296.180644,460.301878 Z" id="Fill-13" fill="#FFFFFF" sketch:type="MSShapeGroup"></path>
                <path d="M460.706267,345.845497 C452.427069,344.662912 444.786449,342.427156 437.931773,344.645061 C430.661798,346.996844 423.440943,350.959619 417.649077,356.207619 C412.196595,361.152163 407.226397,367.582748 402.970692,374.272163 C398.969526,380.564408 393.454526,386.861116 390.417927,394.014639 C387.425984,401.065524 387.198239,409.473034 385.050291,416.71581 C382.79517,424.333442 384.197364,432.616 382.777308,439.724898 C381.111644,448.078857 378.34298,455.428735 377.677607,461.970884 C376.686247,471.677007 378.557328,482.034667 385.010101,485.180789 C391.641498,488.411701 402.492874,484.515864 409.557433,480.794068 C415.92536,477.438204 420.457931,470.891592 421.377842,461.872707 C421.788676,457.865306 419.078065,450.48419 420.29717,442.540789 C421.190287,436.70819 428.156603,431.366476 429.732955,425.034068 C431.300377,418.728435 432.305134,412.503129 434.752275,407.058776 C437.690632,400.534476 439.80732,395.719347 444.33096,392.586612 C445.679567,397.856925 445.264267,402.908571 445.188352,409.307918 C445.121368,415.278857 445.000798,421.374748 444.415806,427.198422 C443.745968,433.874449 447.537251,440.456762 447.175538,445.414694 C446.670927,452.425415 445.469684,459.520925 444.683741,466.522721 C443.897798,473.502204 441.834696,480.423673 440.803146,487.403156 C439.776061,494.346939 434.877312,500.679347 433.635879,507.627592 C431.854109,517.614857 438.36047,523.295728 444.875761,526.316898 C451.364259,529.333605 458.169814,527.396844 465.430858,523.518857 C471.816648,520.109442 481.082741,517.132898 482.641231,508.404082 C483.829077,501.763755 481.774907,494.578993 482.757336,487.934204 C483.744231,481.262639 480.761219,474.167129 481.5293,467.500027 C482.301846,460.801687 488.066919,454.665633 488.602789,447.971755 C489.13866,441.251102 490.88917,434.56615 491.174968,427.858884 C491.460765,421.124844 488.174093,414.310476 488.191955,407.589823 C488.205352,401.761687 488.714429,395.219537 488.250008,388.521197 C487.803449,382.112925 491.99217,374.414966 490.362231,368.430639 C488.584927,361.92419 479.863636,358.813769 475.786555,354.288707 C471.749664,349.812735 467.91819,346.871891 460.706267,345.845497" id="Fill-14" fill="#FFFFFF" sketch:type="MSShapeGroup"></path>
                <path d="M514.364761,356.408435 C513.498437,363.454857 511.515717,370.362939 510.649393,377.409361 C509.783069,384.455782 507.911988,391.381714 507.045664,398.428136 C506.17934,405.474558 505.951595,412.596844 505.085271,419.643265 C504.218947,426.689687 508.791709,434.405497 507.925385,441.451918 C507.059061,448.49834 502.227296,455.05834 501.360972,462.104762 C500.499113,469.151184 500.083814,476.251156 499.221955,483.297578 C498.355632,490.344 497.739381,497.42166 496.873057,504.468082 C496.006733,511.514503 490.844514,518.03434 489.97819,525.080762 C489.111866,532.127184 493.55066,539.825143 492.688802,546.871565 C491.483093,556.666939 493.224672,566.158857 499.686377,569.278204 C506.282049,572.460027 517.312049,570.429551 524.43466,566.654204 C530.802587,563.276027 535.888891,555.774422 536.987425,546.826939 C537.853749,539.780517 533.745409,532.122721 534.611733,525.076299 C535.478057,518.029878 544.02519,511.929524 544.891514,504.883102 C545.757838,497.83668 539.83647,489.955755 540.702794,482.909333 C541.569117,475.862912 544.949567,469.124408 545.815891,462.077986 C546.682215,455.031565 549.174012,448.185959 550.03587,441.139537 C550.902194,434.093116 550.254684,426.859265 551.121008,419.812844 C551.987332,412.766422 550.692312,405.456707 551.558636,398.410286 C552.420494,391.359401 559.328757,385.058231 560.195081,378.01181 C561.061405,370.965388 558.029271,363.437007 558.895595,356.390585 C560.096838,346.595211 554.97481,343.15902 548.50864,340.044136 C541.917433,336.862313 536.085377,337.018503 528.962765,340.789388 C522.594838,344.167565 515.463296,347.460952 514.364761,356.408435" id="Fill-15" fill="#FFFFFF" sketch:type="MSShapeGroup"></path>
                <path d="M656.732142,284.891048 C648.752138,284.926748 640.718547,285.774639 632.725146,285.966531 C624.745142,286.158422 616.751741,287.430259 608.762806,287.77834 C600.791733,288.126422 593.01268,292.258776 585.028211,292.758585 C576.239935,293.311946 572.890745,298.260952 568.737749,304.263129 C564.062279,311.028408 561.561551,316.535238 563.673773,323.345143 C565.817255,330.26215 569.340603,337.018503 579.481951,336.384816 C580.129462,336.34019 582.411377,335.416435 583.058887,335.376272 C582.20596,342.311129 580.558158,349.308463 579.705231,356.24332 C578.852304,363.178177 576.592717,369.938993 575.744255,376.87385 C574.891328,383.808707 573.873174,390.721252 573.020247,397.656109 C572.16732,404.590966 575.846964,412.083646 574.994036,419.018503 C574.145575,425.948898 572.484377,432.785578 571.631449,439.720435 C570.782988,446.655293 564.571356,452.93415 563.718429,459.869007 C562.865502,466.803864 561.905401,473.725333 561.052474,480.66019 C560.199547,487.595048 558.069462,494.369252 557.216534,501.304109 C556.363607,508.238966 558.373121,515.526367 557.52466,522.461224 C556.671733,529.396082 560.369239,536.888762 559.516312,543.823619 C558.315069,553.618993 557.328174,563.075211 563.789879,566.194558 C570.385551,569.376381 582.313134,568.497252 589.435745,564.721905 C595.803672,561.34819 595.736688,551.86966 596.835223,542.922177 C597.692615,535.924844 602.685142,529.431782 603.547,522.434449 C604.404393,515.437116 604.596413,508.354993 605.458271,501.35766 C606.315664,494.355864 611.620781,487.902966 612.48264,480.905633 C613.340032,473.908299 611.241206,466.545034 612.098599,459.547701 C612.960457,452.550367 615.702328,445.780626 616.564186,438.783293 C617.421579,431.785959 618.783583,424.846639 619.645441,417.849306 C620.502834,410.851973 617.743101,403.408381 618.600494,396.411048 C619.462352,389.409252 617.443907,382.059374 618.305765,375.062041 C619.167623,368.060245 621.797854,361.281578 622.659713,354.284245 C623.521571,347.282449 624.414688,339.165007 625.276547,332.163211 C633.618263,331.957932 642.920081,329.90068 651.252866,329.860517 C660.2153,329.820354 665.538279,327.642612 669.651085,321.658286 C674.210449,315.022422 680.506927,306.199891 678.233943,299.265034 C675.978822,292.392653 666.601089,284.846422 656.732142,284.891048" id="Fill-16" fill="#FFFFFF" sketch:type="MSShapeGroup"></path>
                <path d="M719.835352,370.719946 C718.919907,377.614639 717.200656,384.437932 716.249486,391.350476 C715.298316,398.24517 712.618964,404.952435 711.511498,411.842667 C710.408498,418.710585 704.768462,424.757388 703.388595,431.602993 C702.01766,438.412898 706.023291,446.503565 704.254919,453.268844 C703.468976,456.276626 695.806028,461.506776 693.341024,469.717932 C691.661964,475.314014 690.03649,481.41883 687.705453,487.416544 C685.311899,493.583837 682.748652,499.054966 679.783502,503.901333 C675.594781,510.733551 673.281607,515.94585 668.231028,515.91015 C666.68147,515.901224 670.102109,508.631673 671.075607,495.770503 C671.553425,489.491646 665.243551,481.512544 666.083081,473.573605 C666.806506,466.74585 675.103567,460.315265 675.983287,452.898449 C676.831749,445.780626 674.152397,438.100517 675.058911,430.964844 C675.992219,423.579265 680.252389,416.755973 681.154437,409.910367 C682.194919,402.06068 683.704287,394.84468 684.56168,388.521197 C685.999599,377.92702 684.892134,369.773878 685.271709,366.734857 C686.495279,356.93502 681.864466,346.733551 675.398296,343.618667 C668.811555,340.445769 657.946781,343.408925 650.819704,347.188735 C644.451777,350.566912 636.815623,357.184925 635.703692,366.123483 C634.77485,373.584925 639.325283,381.769306 638.324992,389.253061 C637.329166,396.714503 635.520603,404.077769 634.502449,411.548136 C633.488761,419.018503 632.041911,426.421932 631.059482,433.892299 C630.077053,441.371592 629.6037,448.891048 628.701652,456.365878 C627.795138,463.858558 621.989874,470.806803 621.217328,478.286095 C620.444781,485.796626 619.618648,493.369633 619.02919,500.862313 C618.466526,508.033687 617.287611,516.057415 617.99764,523.014585 C618.765721,530.529578 624.687089,537.259156 627.652239,543.305959 C630.867462,549.861497 634.533709,557.581769 641.232089,560.857306 C646.778348,563.566095 655.120065,565.94019 663.635939,565.391293 C671.035417,564.913796 678.818935,562.74498 685.070757,560.192381 C691.608377,557.519293 697.927182,552.717551 703.330543,548.161252 C708.564211,543.747755 712.636826,537.343946 716.914858,531.524735 C720.951749,526.040218 727.283951,521.176 730.570623,514.749878 C733.692069,508.645061 733.111543,500.42498 735.634599,493.731102 C738.081741,487.246966 741.966802,481.017197 743.927194,474.22068 C745.869725,467.486639 746.200178,460.212626 747.731874,453.393796 C749.29483,446.458939 751.523158,439.662422 752.742263,432.87483 C754.014955,425.757007 753.697899,418.532082 754.671397,411.842667 C755.743138,404.483864 758.717219,397.72751 759.534421,391.229986 C760.521316,383.424925 757.917879,375.932245 758.712753,369.952381 C760.02117,360.116844 758.404628,350.955156 751.933992,347.85366 C745.360648,344.703075 736.005243,349.335238 728.860304,353.132898 C722.492377,356.515537 721.018733,361.808163 719.835352,370.719946" id="Fill-17" fill="#FFFFFF" sketch:type="MSShapeGroup"></path>
                <path d="M942.391279,465.607891 C936.912004,473.44419 928.82036,477.357878 922.550676,480.222857 C914.816279,483.752762 905.487668,487.496871 897.771134,485.394993 C890.277879,483.355592 886.82598,472.150041 880.614348,466.794939 C874.407182,461.448762 868.878785,456.691646 865.190211,450.011156 C862.3367,444.843483 858.880336,439.867701 855.915186,434.829442 C852.838397,429.59483 844.367178,425.029605 840.678603,420.696435 C845.916737,415.71619 854.83898,411.177741 859.867231,405.648599 C864.828498,400.190857 870.414947,395.08566 874.84481,389.244136 C879.381846,383.25981 885.767636,378.230476 889.393692,372.00517 C893.234097,365.409469 890.112652,355.730122 892.519603,349.049633 C895.12304,341.820245 901.455243,335.818068 901.870543,328.72702 C902.379619,319.984816 895.658911,315.133986 892.019457,309.671782 C888.040619,303.691918 884.057316,300.327129 876.693563,297.466612 C870.289911,294.97649 863.939846,292.209687 856.151862,291.477823 C848.993526,290.808435 841.728016,290.79951 834.283883,291.16098 C826.719178,291.535837 818.569482,286.577905 811.580838,287.568599 C803.395417,288.733333 796.647915,294.931864 790.570251,296.279565 C780.187761,298.577796 774.413757,304.901279 772.614126,312.68849 C770.586749,321.470857 770.528696,332.716571 777.731688,337.589714 C777.169024,344.926204 783.005547,351.044408 782.259794,358.376435 C781.522972,365.699537 773.511709,372.201524 772.591798,379.520163 C771.671887,386.81649 773.234842,394.41181 772.136308,401.703673 C771.037773,408.973224 773.659073,416.885388 772.377449,424.150476 C771.100291,431.393252 764.857401,437.716735 763.392688,444.950585 C761.936907,452.15766 762.879146,459.869007 761.23581,467.067156 C759.596939,474.234068 756.02447,480.932408 754.198045,488.085932 C752.380551,495.208218 754.099802,503.30781 752.094753,510.412245 C749.535972,519.462367 749.250174,526.910422 754.189113,531.823728 C759.641595,537.254694 768.184263,536.955701 775.659656,535.233143 C782.416089,533.675701 791.570543,531.520272 794.147186,522.403211 C796.339789,514.651701 798.233198,506.775238 800.22485,499.01034 C802.229899,491.214204 798.268923,481.990041 800.077486,474.180517 C801.89498,466.339755 804.641316,457.450286 806.271255,449.596136 C809.24087,451.434721 816.604623,462.185088 821.378336,471.217361 C826.192239,480.316571 830.671223,489.647837 832.466389,492.133497 C836.146032,497.243156 838.110891,504.575184 842.835482,508.783401 C847.528814,512.964844 856.585024,511.286912 862.131283,514.366095 C867.601628,517.405116 872.080611,522.148844 878.216328,523.902639 C885.423785,525.964354 892.747348,530.110095 900.182551,530.114558 C907.595425,530.11902 915.343219,527.521796 922.599798,525.61181 C929.73134,523.733061 937.697947,522.175619 944.311482,518.56985 C950.764255,515.053333 956.672227,509.550966 962.294401,504.503782 C967.742417,499.612789 973.226158,493.927456 977.57564,487.706612 C983.211211,479.647184 984.7697,469.137796 981.697377,463.104381 C978.227615,456.298939 967.599518,457.740354 959.601652,457.633252 C952.764838,457.544 947.821433,457.838531 942.391279,465.607891 L942.391279,465.607891 Z M847.828008,353.405116 C844.143899,359.460844 838.204668,364.106395 833.96236,369.653388 C829.679862,375.245007 822.007984,383.362449 817.203012,388.489959 C818.341737,380.028898 826.138652,368.948299 827.036235,360.47385 C827.933818,351.990476 827.063028,344.372844 827.715004,335.876082 C831.876931,335.661878 833.605113,336.228626 837.780437,336.398204 C848.631814,336.835537 856.888684,334.550694 856.888684,337.406748 C856.888684,339.660354 852.771413,345.287673 847.828008,353.405116 L847.828008,353.405116 Z" id="Fill-18" fill="#FFFFFF" sketch:type="MSShapeGroup"></path>
                <path d="M1041.88009,411.432109 C1037.34752,406.49649 1034.05192,401.00751 1027.68399,398.017578 C1021.78495,395.246313 1016.14045,389.859973 1009.16967,388.503347 C1002.69457,387.235973 995.30402,391.283537 988.315377,391.033633 C981.594668,390.78819 974.708733,387.307374 967.867453,387.820571 C961.021709,388.333769 954.765421,389.828735 948.147421,390.926531 C949.290611,386.405932 949.536219,381.854095 950.540976,377.329034 C959.851725,376.619483 969.533117,375.102204 978.799211,375.16468 C987.788437,375.222694 991.365372,370.666395 995.469247,364.677605 C1000.00182,358.068517 1005.41857,351.267537 1003.1188,344.310367 C1000.85028,337.442449 994.067053,334.394503 984.256158,334.332027 C975.71349,334.274014 965.871336,334.952327 957.292943,335.550313 C957.909194,330.355864 961.579907,325.469333 962.008603,320.261497 C968.796296,320.261497 973.730769,320.622966 980.522927,320.622966 C987.310619,320.622966 994.098312,313.808599 1000.886,313.808599 C1007.6737,313.808599 1014.46139,320.56049 1021.24908,320.56049 C1030.22491,320.56049 1036.75806,313.224 1040.8664,307.239673 C1045.41237,300.612735 1044.22453,293.004027 1041.93815,286.060245 C1039.67856,279.192327 1036.57498,276.496925 1026.73282,276.496925 C1020.06123,276.496925 1013.39411,268.611537 1006.72253,268.611537 C1000.0554,268.611537 993.383818,273.877388 986.716696,273.877388 C980.045109,273.877388 973.377988,274.76098 966.706401,274.76098 C960.039279,274.76098 953.367692,269.700408 946.696105,269.700408 C935.782211,269.700408 925.104992,277.309116 921.492332,285.297143 C916.924036,288.862748 918.433405,296.605333 918.067227,303.990912 C917.687652,311.684408 915.177992,319.239565 914.392049,326.883973 C913.606105,334.528381 916.874915,342.810939 915.669206,350.419646 C914.467964,357.992653 912.293223,365.610286 910.663283,373.156517 C909.042275,380.631347 905.568049,387.838422 903.513879,395.295401 C901.482036,402.658667 897.516595,409.526585 895.047126,416.876463 C892.666968,423.963048 894.680947,429.49219 897.48087,434.133279 C900.660368,439.403592 905.965486,439.742748 912.114599,440.791456 C918.044899,441.804463 924.399429,445.521796 929.49913,441.572408 C936.76464,439.613333 943.677368,434.195755 951.688632,433.039946 C959.561462,431.901986 967.92104,429.389551 975.610781,429.367238 C984.001619,429.344925 991.959296,434.731265 999.005992,436.462748 C1005.75349,438.118367 1009.37062,443.031673 1011.33548,449.25698 C1013.14404,454.986939 1009.91096,460.364354 1007.9193,466.665524 C1005.9991,472.748027 1007.83892,481.891864 1002.60972,485.61366 C994.437696,491.428408 991.365372,496.198912 992.633599,502.758912 C994.040259,510.010612 997.952113,519.823837 1005.7401,522.220245 C1012.28218,524.232871 1019.47178,517.864762 1026.99183,512.514122 C1032.31034,508.725388 1035.59255,504.128925 1039.51333,498.764898 C1043.34034,493.534748 1047.02891,488.907048 1049.48499,482.735293 C1051.9098,476.648327 1058.23307,471.565442 1059.28695,465.099156 C1060.35423,458.516844 1062.07794,451.323156 1061.68497,444.905959 C1061.27414,438.118367 1058.76001,431.018395 1056.66565,425.056381 C1054.4016,418.59902 1046.17599,416.108898 1041.88009,411.432109" id="Fill-19" fill="#FFFFFF" sketch:type="MSShapeGroup"></path>
            </g>
        </g>
    </g>
</svg>